<svg xmlns="http://www.w3.org/2000/svg" xml:space="preserve" width="512" height="512" viewBox="0 0 512 512"><path fill="#c39900" d="M491.83 314.56c-28.35-3.98-55.28-16.11-80.07-36.04a5.99 5.99 0 0 0-7.52 0c-12.3 9.89-25.13 17.85-38.39 23.86V41.58c0-14.66-11.93-26.58-26.58-26.58H93.42v.01c-1.56 0-3.09.6-4.24 1.74L16.76 89.17a5.97 5.97 0 0 0-1.74 4.24H15v377C15 485.07 26.93 497 41.58 497h299.27c13.79 0 25-11.22 25-25v-2.66l38.76 26.61a6.03 6.03 0 0 0 6.8 0l56.08-38.5c19.03-13.07 29.52-32.98 29.52-56.06V320.5a6.01 6.01 0 0 0-5.18-5.94M87.42 35.49v51.93H35.49zM353.85 472c0 7.17-5.83 13-13 13H41.58C33.54 485 27 478.46 27 470.42v-371h66.42c3.31 0 6-2.69 6-6V27h239.85c8.04 0 14.58 6.54 14.58 14.58v265.63c-9.69 3.46-19.59 5.93-29.67 7.34a6.01 6.01 0 0 0-5.17 5.94v80.89c0 23.09 10.48 43 29.52 56.06l5.32 3.65zM485 401.38c0 19.01-8.63 35.41-24.31 46.17l-52.68 36.17-52.68-36.17c-15.67-10.76-24.31-27.16-24.31-46.17v-75.76c27.19-4.72 53.05-16.41 76.99-34.81 23.95 18.39 49.8 30.08 76.99 34.81zm-86.08 1.57 44.43-44.43c2.34-2.34 6.14-2.34 8.48 0s2.34 6.14 0 8.48l-48.67 48.67a5.99 5.99 0 0 1-8.48 0l-27.64-27.63c-2.34-2.34-2.34-6.14 0-8.49 2.34-2.34 6.14-2.34 8.49 0zM122.29 224.24c20.94 0 37.98-17.04 37.98-37.98 0-1.24-.38-2.4-1.02-3.35l-25.68-38.13h50.85v113.27h-31.54c-3.31 0-6 2.69-6 6s2.69 6 6 6h75.09c3.31 0 6-2.69 6-6s-2.69-6-6-6h-31.55V144.78h50.86L221.6 182.9c-.65.96-1.02 2.11-1.02 3.35 0 20.94 17.04 37.98 37.98 37.98s37.98-17.04 37.98-37.98c0-1.24-.38-2.4-1.02-3.35l-31.98-47.48a6 6 0 0 0-4.98-2.65h-62.13V108.3c8.94-2.61 15.5-10.86 15.5-20.63 0-11.85-9.64-21.49-21.5-21.49-11.85 0-21.49 9.64-21.49 21.49 0 9.77 6.56 18.02 15.49 20.63v24.47H122.3c-2 0-3.86.99-4.98 2.65L85.34 182.9c-.65.96-1.02 2.11-1.02 3.35-.01 20.95 17.03 37.99 37.97 37.99m136.27-12c-12.26 0-22.57-8.54-25.29-19.98h50.57c-2.71 11.44-13.02 19.98-25.28 19.98m20.71-31.98h-41.41l20.71-30.74zm-98.34-92.58c0-5.24 4.26-9.49 9.49-9.49s9.5 4.26 9.5 9.49-4.26 9.49-9.5 9.49-9.49-4.25-9.49-9.49m-58.64 124.56c-12.26 0-22.57-8.54-25.28-19.98h50.57c-2.72 11.44-13.02 19.98-25.29 19.98m0-62.73L143 180.26h-41.41zm137.64 179.03c3.31 0 6 2.69 6 6s-2.69 6-6 6H120.92c-3.31 0-6-2.69-6-6s2.69-6 6-6zM67.94 381.55c0-3.31 2.69-6 6-6h218.75c3.31 0 6 2.69 6 6s-2.69 6-6 6H73.94c-3.32 0-6-2.69-6-6m234.58 47.01c0 3.31-2.69 6-6 6H73.94c-3.31 0-6-2.69-6-6s2.69-6 6-6h222.58c3.32 0 6 2.68 6 6"/></svg>