<svg xmlns="http://www.w3.org/2000/svg" version="1.1" xmlns:xlink="http://www.w3.org/1999/xlink" width="512" height="512" x="0" y="0" viewBox="0 0 512 512" style="enable-background:new 0 0 512 512" xml:space="preserve" class=""><g><path d="M119.23 362.1h273.54c3.31 0 6-2.69 6-6v-85.99c0-50.72-41.27-91.99-91.99-91.99H205.22c-50.72 0-91.99 41.27-91.99 91.99v85.99c0 3.31 2.69 6 6 6zM314.5 190.5l-37.44 73.72v-49.19l7.73-24.91h21.98c2.61 0 5.19.14 7.73.38zm-47.86 17.62h-21.29l-5.59-18h32.46zm-19.7 12h18.13v67.72L256 305.69l-9.06-17.84zm-19.73-30 7.73 24.91v49.19L197.5 190.5c2.54-.24 5.12-.38 7.72-.38zm-101.98 79.99c0-37.17 25.49-68.5 59.91-77.44l65.51 128.98c1.02 2.01 3.09 3.28 5.35 3.28s4.33-1.27 5.35-3.28l65.51-128.98c34.42 8.93 59.91 40.26 59.91 77.44v79.99h-46.65v-58.58c0-3.31-2.69-6-6-6s-6 2.69-6 6v58.58H183.88v-58.58c0-3.31-2.69-6-6-6s-6 2.69-6 6v58.58h-46.65zM256 163.99c41.08 0 74.5-33.42 74.5-74.5s-33.42-74.5-74.5-74.5-74.5 33.42-74.5 74.5 33.42 74.5 74.5 74.5zM256 27c34.46 0 62.5 28.04 62.5 62.5S290.46 152 256 152s-62.5-28.04-62.5-62.5S221.54 27 256 27zm52.62 406.99a6.02 6.02 0 0 0-5.02-4.11l-29.71-3.42-12.43-27.2a6.003 6.003 0 0 0-10.92 0l-12.43 27.2-29.71 3.42c-2.33.27-4.29 1.87-5.02 4.11s-.08 4.69 1.65 6.27l22.03 20.23-5.93 29.31c-.47 2.3.45 4.66 2.35 6.04s4.43 1.52 6.48.37l26.05-14.7 26.05 14.7c.92.52 1.94.77 2.95.77 1.24 0 2.48-.39 3.53-1.15a5.984 5.984 0 0 0 2.35-6.04l-5.93-29.31 22.03-20.23a5.987 5.987 0 0 0 1.63-6.26zm-34.29 19.96a5.986 5.986 0 0 0-1.82 5.61l4 19.77-17.56-9.91c-.92-.52-1.93-.77-2.95-.77s-2.03.26-2.95.77l-17.56 9.91 4-19.77c.42-2.06-.27-4.19-1.82-5.61l-14.85-13.64 20.03-2.3c2.09-.24 3.9-1.56 4.77-3.47L256 416.2l8.38 18.34a5.996 5.996 0 0 0 4.77 3.47l20.03 2.3zm-76.69-22.24 22.03-20.23c1.73-1.59 2.37-4.04 1.65-6.27s-2.69-3.84-5.02-4.11l-29.71-3.42-12.43-27.2a6.003 6.003 0 0 0-10.92 0l-12.43 27.2-29.71 3.42c-2.33.27-4.29 1.87-5.02 4.11s-.08 4.69 1.65 6.27l22.03 20.23-5.93 29.31c-.47 2.3.45 4.66 2.35 6.04s4.43 1.53 6.48.37l26.05-14.7 26.05 14.7c.92.52 1.94.77 2.95.77 1.24 0 2.48-.39 3.53-1.15a5.984 5.984 0 0 0 2.35-6.04zm-12.43-.94 4 19.77-17.56-9.91c-.92-.52-1.93-.77-2.95-.77s-2.03.26-2.95.77l-17.56 9.91 4-19.77c.42-2.06-.27-4.19-1.82-5.61l-14.85-13.64 20.03-2.3c2.09-.24 3.9-1.56 4.77-3.47l8.38-18.34 8.38 18.34a5.996 5.996 0 0 0 4.77 3.47l20.03 2.3-14.85 13.64a5.986 5.986 0 0 0-1.82 5.61zm-73.93-27.84 22.03-20.23c1.73-1.59 2.37-4.04 1.65-6.27s-2.69-3.84-5.02-4.11l-29.71-3.42-12.43-27.2a6.003 6.003 0 0 0-10.92 0l-12.43 27.2-29.71 3.42c-2.33.27-4.29 1.87-5.02 4.11s-.08 4.69 1.65 6.27l22.03 20.23-5.93 29.31c-.47 2.3.45 4.66 2.35 6.04s4.43 1.52 6.48.37l26.05-14.7 26.05 14.7c.92.52 1.94.77 2.95.77 1.24 0 2.48-.39 3.53-1.15a5.984 5.984 0 0 0 2.35-6.04zm-12.43-.94 4 19.77-17.56-9.91c-.92-.52-1.93-.77-2.95-.77s-2.03.26-2.95.77l-17.56 9.91 4-19.77c.42-2.06-.27-4.19-1.82-5.61l-14.85-13.64 20.03-2.3c2.09-.24 3.9-1.56 4.77-3.47l8.38-18.34 8.38 18.34a5.996 5.996 0 0 0 4.77 3.47l20.03 2.3-14.85 13.64a6.01 6.01 0 0 0-1.82 5.61zm297.08 3.22a6.02 6.02 0 0 0-5.02-4.11l-29.71-3.42-12.43-27.2a6.003 6.003 0 0 0-10.92 0l-12.43 27.2-29.71 3.42c-2.33.27-4.29 1.87-5.02 4.11s-.08 4.69 1.65 6.27l22.03 20.23-5.93 29.31c-.47 2.3.45 4.66 2.35 6.04s4.43 1.53 6.48.37l26.05-14.7 26.05 14.7c.92.52 1.94.77 2.95.77 1.24 0 2.48-.39 3.53-1.15a5.984 5.984 0 0 0 2.35-6.04l-5.93-29.31 22.03-20.23a5.997 5.997 0 0 0 1.63-6.26zm-34.29 19.95a5.986 5.986 0 0 0-1.82 5.61l4 19.77-17.56-9.91c-.92-.52-1.93-.77-2.95-.77s-2.03.26-2.95.77l-17.56 9.91 4-19.77c.42-2.06-.27-4.19-1.82-5.61l-14.85-13.64 20.03-2.3c2.09-.24 3.9-1.56 4.77-3.47l8.38-18.34 8.38 18.34a5.996 5.996 0 0 0 4.77 3.47l20.03 2.3zm120.64-48.74a6.02 6.02 0 0 0-5.02-4.11l-29.71-3.42-12.43-27.2a6.003 6.003 0 0 0-10.92 0l-12.43 27.2-29.71 3.42c-2.33.27-4.29 1.87-5.02 4.11s-.08 4.69 1.65 6.27l22.03 20.23-5.93 29.31c-.47 2.3.45 4.66 2.35 6.04s4.43 1.52 6.48.37l26.05-14.7 26.05 14.7c.92.52 1.94.77 2.95.77 1.24 0 2.48-.39 3.53-1.15a5.984 5.984 0 0 0 2.35-6.04l-5.93-29.31 22.03-20.23a5.968 5.968 0 0 0 1.63-6.26zM448 396.38a5.986 5.986 0 0 0-1.82 5.61l4 19.77-17.56-9.91c-.92-.52-1.93-.77-2.95-.77s-2.03.26-2.95.77l-17.56 9.91 4-19.77c.42-2.06-.27-4.19-1.82-5.61l-14.85-13.64 20.03-2.3c2.09-.24 3.9-1.56 4.77-3.47l8.38-18.34 8.38 18.34a5.996 5.996 0 0 0 4.77 3.47l20.03 2.3z" fill="#c39900" opacity="1" data-original="#000000" class=""></path></g></svg>