<svg xmlns="http://www.w3.org/2000/svg" xml:space="preserve" width="512" height="512" viewBox="0 0 64 64"><g fill="#c39900"><path d="M27.875 19.68c3.985 3.325 10.464.21 10.36-5.04a6.424 6.424 0 0 0-6.42-6.42c-6.06-.034-8.729 7.839-3.94 11.46"/><path d="M21.404 29.833a4.25 4.25 0 0 0 3.609 1.991h13.606a4.292 4.292 0 0 0 3.858-6.087 11.77 11.77 0 0 0-4.677-5.092 8.55 8.55 0 0 1-5.984 2.489 8.65 8.65 0 0 1-5.994-2.49c-2.84 1.767-6.574 5.642-4.418 9.19zm21.871-12.31c3.99 3.324 10.502.24 10.392-5.04a6.418 6.418 0 1 0-10.392 5.04"/><path d="M45.287 24.399a7.3 7.3 0 0 1 .716 3.215 7.2 7.2 0 0 1-.29 1.991.9.9 0 0 0 .373.073h7.954a4.25 4.25 0 0 0 3.609-1.991c2.16-3.547-1.566-7.432-4.407-9.189-3.362 3.446-8.757 3.074-12.093.041-.941.414.786 1.063 1.193 1.712a14.5 14.5 0 0 1 2.945 4.148m-32.854-6.865a6.42 6.42 0 1 0 3.951-11.47 6.453 6.453 0 0 0-3.95 11.47z"/><path d="M9.592 29.678h7.954a1.2 1.2 0 0 0 .383-.073 6.8 6.8 0 0 1-.3-1.991c-.03-2.827 1.752-5.41 3.67-7.363.417-.657 2.118-1.297 1.183-1.711-3.33 3.055-8.79 3.384-12.092-.052-2.84 1.77-6.566 5.649-4.408 9.198a4.25 4.25 0 0 0 3.61 1.992M59.85 43.269a2.41 2.41 0 0 0-2.94-1.475l-15.586 4.61a5.34 5.34 0 0 1-5.652 3.73l-8.569-.856a1.085 1.085 0 1 1 .217-2.159l8.57.857a3.185 3.185 0 0 0 1.572-6.085l-12.441-5.325a9.65 9.65 0 0 0-7.56.878L4 45.221l5.326 9.23 21.997 3.342a12.45 12.45 0 0 0 7.647-1.27l19.74-10.282a2.42 2.42 0 0 0 1.14-2.972"/></g></svg>