<svg xmlns="http://www.w3.org/2000/svg" version="1.1" xmlns:xlink="http://www.w3.org/1999/xlink" width="512" height="512" x="0" y="0" viewBox="0 0 32 32" style="enable-background:new 0 0 512 512" xml:space="preserve" class=""><g><path fill="#c39900" fill-rule="evenodd" d="M10.961 2A3 3 0 0 0 8.62 3.126L5.657 6.827A3 3 0 0 0 5 8.702V27a3 3 0 0 0 3 3h16a3 3 0 0 0 3-3V5a3 3 0 0 0-3-3zm1.332 12.707a1 1 0 0 1 0-1.414l3-3a1 1 0 0 1 1.414 0l3 3a1 1 0 0 1-1.414 1.414L17 13.414V18a1 1 0 1 1-2 0v-4.586l-1.293 1.293a1 1 0 0 1-1.414 0zM21 22a1 1 0 1 0 0-2H11a1 1 0 1 0 0 2z" clip-rule="evenodd" opacity="1" data-original="#000000" class=""></path></g></svg>