<svg xmlns="http://www.w3.org/2000/svg" xml:space="preserve" width="512" height="512" viewBox="0 0 682.667 682.667"><defs><clipPath id="a" clipPathUnits="userSpaceOnUse"><path fill="#c39900" d="M0 512h512V0H0Z"/></clipPath></defs><g fill="none" stroke="#c39900" stroke-miterlimit="10" stroke-width="30" clip-path="url(#a)" transform="matrix(1.33333 0 0 -1.33333 0 682.667)"><path d="M257.86 336.496c0-49.569-39.33-89.753-87.848-89.753-48.516 0-87.847 40.184-87.847 89.753s39.331 89.754 87.847 89.754c48.518 0 87.848-40.184 87.848-89.754ZM39.284 86.25c-14.967 0-26.5 13.786-23.828 28.833 13.294 74.877 77.435 131.66 154.557 131.66s141.262-56.783 154.557-131.66c2.671-15.047-8.861-28.833-23.829-28.833ZM445.13 348.975c0-38.372-30.445-69.479-68.003-69.479s-68.003 31.107-68.003 69.479 30.446 69.478 68.003 69.478 68.003-31.107 68.003-69.478Z"/><path d="M268.548 211.248c20.04 40.488 61.138 68.248 108.58 68.248 59.7 0 109.352-43.955 119.643-101.918 2.068-11.647-6.86-22.319-18.446-22.319h-166.45"/></g></svg>