<svg xmlns="http://www.w3.org/2000/svg" xml:space="preserve" width="512" height="512" viewBox="0 0 467.993 467.993"><g fill="#c39900"><path d="M178.625 421.25c-6.271-4.773-7.118-14.417-2.002-20.507L195.739 378c5.044-6.001 14.354-6.84 20.378-1.792 6.062 5.047 7.127 14.426 2.01 20.514l-19.115 22.742c-4.74 5.07-13.456 7.061-20.387 1.786m-50.803-42.813c-6.271-4.773-7.118-14.417-2.002-20.507l19.116-22.743c5.044-6.001 14.354-6.84 20.378-1.792 6.062 5.047 7.127 14.426 2.01 20.514l-19.115 22.742c-4.74 5.07-13.456 7.061-20.387 1.786M76.024 336.62c-6.271-4.773-7.118-14.417-2.002-20.507l19.116-22.743c5.044-6.001 14.354-6.84 20.378-1.792 6.062 5.047 7.127 14.426 2.01 20.514L96.41 334.834c-4.739 5.069-13.455 7.061-20.386 1.786m-49.806-43.809c-6.271-4.773-7.118-14.417-2.002-20.507l19.116-22.743c5.044-6.001 14.354-6.84 20.378-1.792 6.062 5.047 7.127 14.426 2.01 20.514l-19.115 22.742c-4.74 5.07-13.456 7.061-20.387 1.786M298.381 20.27c-22.762 11.752-38.513 34.645-45.199 66.394a17.4 17.4 0 0 1-1.272 3.808l-42.233 90.361c-4.202 8.993-1.393 19.723 6.65 25.496 10.11 7.083 25.005 3.695 30.643-7.439l35.531-70.174c4.963-9.804 18.347-12.609 26.831-5.571l127.736 107.538C532.939 74.208 382.965-32.062 298.381 20.27"/><path d="M445.594 279.325s-21.482-25.689-21.429-25.773l-120.54-99.973-29.796 58.847c-13.854 27.362-49.909 36.412-75.074 18.782-20.365-14.264-27.51-40.956-16.989-63.466l41.315-88.534c-.222-.406-7.388-37.42-37.015-56.764C129.488-14.495 55.101 12.016 22.727 68.438c-30.765 53.616-30.159 121.679.984 174.888l5.82-6.924c12.017-14.297 33.798-16.456 47.884-4.19 13.65 11.886 15.309 32.55 3.615 46.463 11.834-14.079 32.859-15.916 46.962-4.102s15.942 32.805 4.109 46.884c11.834-14.079 32.859-15.915 46.962-4.101s15.942 32.805 4.109 46.885c11.833-14.08 32.859-15.916 46.962-4.102s15.942 32.805 4.109 46.884L215.36 429.49a1161 1161 0 0 0 11.567 7.731l20.033 17.294c13.232 11.422 33.057 10.689 45.405-1.681 12.519-12.539 13.01-32.669 1.118-45.802l1.755 1.534c11.51 13.695 31.938 15.538 45.72 4.124 13.893-11.505 15.757-32.099 4.155-45.904l.094.111c10.033 11.938 27.299 15.28 40.737 7.362 17.571-10.354 20.962-33.294 8.461-48.167l-1.913-2.276c12.305 14.64 34.168 16.549 48.833 4.265 14.661-12.288 16.574-34.115 4.269-48.756"/></g></svg>