<svg xmlns="http://www.w3.org/2000/svg" xml:space="preserve" width="512" height="512" viewBox="0 0 32 32"><path fill="#c39900" d="M23 19h.02a1 1 0 0 0 .385-1.923l-9.89-5.934a1 1 0 0 0-1.03 0l-10 6A1 1 0 0 0 3 19h1v6a1 1 0 0 0-.949.684l-1 3A1 1 0 0 0 3 30h20.02a1 1 0 0 0 .87-1.495l-.941-2.821A1 1 0 0 0 22 25v-6zm-10-5.834L19.39 17H6.61zM16 25h-2v-6h2zm-6-6h2v6h-2zm-4 0h2v6H6zm-1.613 9 .334-1h16.558l.334 1zM20 25h-2v-6h2zm9.351-19.937-8-3a1 1 0 0 0-.702 0l-8 3a1 1 0 0 0 0 1.874L15 7.818V11c0 .409.249.776.628.929l5 2a1 1 0 0 0 .744 0l5-2c.379-.153.628-.52.628-.929V7.818l1-.375V13a1 1 0 0 0 2 0V6a1 1 0 0 0-.649-.937M21 4.068 26.152 6 21 7.932 15.848 6zm4 6.255-4 1.6-4-1.6V8.568l3.649 1.369a1 1 0 0 0 .702 0L25 8.568z"/></svg>