<svg xmlns="http://www.w3.org/2000/svg" xml:space="preserve" width="512" height="512" viewBox="0 0 512 512"><g fill="none" stroke="#c39900" stroke-linecap="round" stroke-linejoin="round" stroke-miterlimit="10" stroke-width="15"><path d="M339.053 368.388c52.369-29.188 87.791-85.124 87.791-149.333q0-1.858-.039-3.708M256 251.084v-32.029M154.827 356.734a171 171 0 0 0 19.123 12.209M86.591 196.811a172 172 0 0 0-1.435 22.244c0 43.578 16.316 83.346 43.173 113.527m117.536-51.465v62.125m31.063-62.125v62.125m31.062-31.501v31.501"/><path d="M318.125 459.523v-21.042c0-1.366.589-2.653 1.58-3.594 11.917-11.319 19.348-27.318 19.348-45.052v-77.656c0-8.363-6.427-15.559-14.781-15.952-8.919-.419-16.281 6.687-16.281 15.514v-30.185c0-8.363-6.427-15.559-14.781-15.952-8.919-.42-16.282 6.687-16.282 15.514v-15.03c0-8.363-6.427-15.559-14.781-15.952-8.919-.42-16.282 6.687-16.282 15.514v15.469c0-8.826-7.363-15.933-16.282-15.514-8.354.393-14.781 7.589-14.781 15.952v90.08l-7.82-7.82c-7.81-7.81-20.474-7.81-28.284 0l-4.287 4.287a5 5 0 0 0 0 7.071l58.17 58.17a62.5 62.5 0 0 0 6.022 5.391c1.19.934 1.866 2.378 1.866 3.891v16.899"/><path d="M318.125 459.523h-88.188a5 5 0 0 0-5 5V499.5a5 5 0 0 0 5 5h83.188a5 5 0 0 0 5-5zm-3.31-262.723 53.802-31.062m-69.333 4.161 53.802-31.062m-42.812-11.151 27.28-15.75m48.714 79.479 22.47-12.973-2.862 10.683c-2.859 10.669 3.473 21.636 14.142 24.495l5.856 1.569a5 5 0 0 0 6.124-3.536l21.292-79.462a63 63 0 0 0 1.658-7.91c.214-1.498 1.126-2.805 2.437-3.561l14.635-8.449m-38.831-67.253-18.223 10.521c-1.183.683-2.592.816-3.902.429-15.762-4.661-33.332-3.097-48.69 5.77l-67.252 38.828c-7.243 4.182-10.261 13.346-6.424 20.777 4.096 7.934 13.932 10.756 21.576 6.343l-26.141 15.093c-7.243 4.182-10.261 13.345-6.425 20.777 4.096 7.934 13.932 10.757 21.576 6.344l-13.016 7.515c-7.243 4.182-10.261 13.345-6.425 20.777 4.096 7.934 13.932 10.757 21.576 6.344l13.396-7.734c-7.644 4.413-10.117 14.343-5.294 21.857 4.517 7.038 13.963 9.006 21.205 4.824l24.807-14.322"/><path d="m433.189 45.018 44.094 76.373a5 5 0 0 0 6.83 1.83L502 112.894a5 5 0 0 0 2.5-4.33V12.507c0-3.849-4.167-6.255-7.5-4.33zM230.513 204.34 256 219.055l27.738-16.015m60.057-130.575C318.138 57.065 288.103 48.21 256 48.21c-25.839 0-50.339 5.737-72.295 16.005m39.146 103.662-53.802-31.063m38.271 57.964-53.802-31.063m11.749 42.652-27.28-15.751"/><path d="m32.217 141.252 18.223 10.521c1.183.683 2.003 1.837 2.322 3.165 3.844 15.98 13.984 30.415 29.342 39.282l67.252 38.828c7.243 4.182 16.688 2.214 21.206-4.825 4.823-7.514 2.349-17.444-5.295-21.857l26.141 15.093c7.243 4.182 16.688 2.214 21.205-4.824 4.823-7.514 2.35-17.444-5.294-21.857l13.016 7.515c7.243 4.182 16.688 2.214 21.205-4.824 4.823-7.514 2.35-17.444-5.294-21.857l-13.396-7.734c7.644 4.413 17.48 1.59 21.576-6.344 3.836-7.431.818-16.595-6.425-20.777l-78.011-45.04 10.683-2.862c10.669-2.859 17.001-13.826 14.142-24.495l-1.569-5.856a5 5 0 0 0-6.124-3.536L97.661 80.26a62 62 0 0 0-7.679 2.52c-1.404.564-2.992.427-4.302-.33L71.045 74"/><path d="m47.226 115.256-15.009 25.996L10 128.425a5 5 0 0 1-2.5-4.33V28.039c0-3.849 4.167-6.255 7.5-4.33L74.48 58.05a5 5 0 0 1 1.83 6.83L65.16 84.194"/></g></svg>