<svg xmlns="http://www.w3.org/2000/svg" version="1.1" xmlns:xlink="http://www.w3.org/1999/xlink" width="512" height="512" x="0" y="0" viewBox="0 0 512 512" style="enable-background:new 0 0 512 512" xml:space="preserve" class=""><g><path fill-rule="evenodd" d="M503.955 493.09c-2.614-24.423-18.243-44.469-39.574-53.608 6.939-6.785 11.257-16.24 11.257-26.689 0-12.101-5.789-22.871-14.739-29.701 17.828-33.433 27.218-70.999 27.218-109.15 0-114.027-83.182-211.089-194.807-229.118.021-.51.039-1.02.039-1.534 0-20.594-16.754-37.349-37.348-37.349s-37.348 16.754-37.348 37.349c0 .515.018 1.025.039 1.534C107.066 62.852 23.883 159.915 23.883 273.942c0 38.152 9.39 75.718 27.218 109.15-8.95 6.829-14.739 17.599-14.739 29.701 0 10.449 4.318 19.904 11.258 26.689-21.332 9.139-36.961 29.186-39.575 53.609a7.997 7.997 0 0 0 7.954 8.851h115.423a7.997 7.997 0 0 0 7.954-8.852 65.984 65.984 0 0 0-6.467-22.261c36.53 22.944 78.829 35.23 123.089 35.23 44.261 0 86.559-12.286 123.089-35.23a65.986 65.986 0 0 0-6.467 22.26 7.997 7.997 0 0 0 7.954 8.851H496a7.998 7.998 0 0 0 7.955-8.85zm-65.666-58.949h-.006c-11.768-.004-21.342-9.579-21.342-21.348 0-11.771 9.577-21.349 21.349-21.349s21.349 9.577 21.349 21.349c0 11.769-9.574 21.345-21.342 21.348h-.008zM256 21.941c11.771 0 21.348 9.577 21.348 21.349 0 11.769-9.573 21.345-21.342 21.348H255.993c-11.768-.004-21.341-9.579-21.341-21.348 0-11.772 9.577-21.349 21.348-21.349zm.011 58.697c22.568.005 41.841 14.877 47.99 35.8H208c6.149-20.924 25.422-35.796 47.99-35.801h.011l.01.001zM52.363 412.792c0-11.771 9.577-21.349 21.349-21.349 11.771 0 21.349 9.577 21.349 21.349 0 11.769-9.573 21.345-21.342 21.348h-.014c-11.769-.003-21.342-9.578-21.342-21.348zm-26.652 73.149c6.149-20.923 25.422-35.795 47.99-35.8h.022c22.568.005 41.841 14.877 47.99 35.8zm81.021-55.722a37.106 37.106 0 0 0 4.329-17.426c0-20.594-16.754-37.349-37.349-37.349a37.27 37.27 0 0 0-8.077.89c-16.863-31.312-25.752-66.57-25.752-102.392 0-106.698 78.215-197.448 182.919-213.575a37.524 37.524 0 0 0 7.107 9.611c-21.332 9.139-36.962 29.186-39.575 53.609a7.997 7.997 0 0 0 7.954 8.851h115.423a7.997 7.997 0 0 0 7.954-8.851c-2.614-24.423-18.243-44.47-39.575-53.609a37.524 37.524 0 0 0 7.107-9.611c104.704 16.127 182.919 106.877 182.919 213.575 0 35.82-8.889 71.078-25.752 102.391a37.332 37.332 0 0 0-8.077-.889c-20.594 0-37.349 16.754-37.349 37.349a37.12 37.12 0 0 0 4.328 17.426c-40.385 38.635-93.136 59.841-149.269 59.841-56.128-.001-108.879-21.207-149.265-59.841zm283.556 55.722c6.149-20.924 25.422-35.796 47.991-35.8H438.3c22.568.005 41.841 14.877 47.99 35.8zm32.6-241.441c1.867.5 3.76.748 5.64.748 3.731 0 7.409-.976 10.717-2.886 4.974-2.872 8.536-7.523 10.03-13.096 1.493-5.573.734-11.382-2.138-16.356l-32.695-56.629c-5.944-10.295-19.156-13.835-29.453-7.892-9.325 5.384-13.081 16.723-9.296 26.464-4.167 1.108-8.177 1.298-12.566 1.5-8.531.394-18.201.84-30.32 7.836l-52.549 30.339c-.171.098-.33.208-.49.317a18.15 18.15 0 0 0-1.519-.077c-.869 0-1.724.062-2.56.18-1.767-8.17-9.051-14.31-17.741-14.31-7.753 0-14.386 4.886-16.982 11.74a18.166 18.166 0 0 0-3.32-.304c-2.636 0-5.135.577-7.397 1.592l-51.056-29.478c-12.118-6.997-21.788-7.443-30.32-7.836-4.389-.202-8.399-.392-12.566-1.5 3.785-9.741.029-21.08-9.296-26.464-4.975-2.872-10.783-3.633-16.356-2.138-5.573 1.493-10.225 5.055-13.096 10.03l-32.696 56.63c-2.872 4.975-3.631 10.783-2.138 16.356s5.055 10.225 10.03 13.096a21.42 21.42 0 0 0 10.744 2.884c6.237 0 12.331-2.714 16.494-7.642 8.785 10.136 15.601 28.372 22.23 46.118 4.923 13.18 10.014 26.808 16.15 37.648a8.003 8.003 0 0 0 10.903 3.022c5.805-3.286 10.308-7.292 13.405-11.724a7.978 7.978 0 0 0 1.063 3.333c6.983 11.861 17.241 24.297 27.161 36.325 13.743 16.662 27.871 33.797 32.492 48.258-11.264 1.511-19.98 11.178-19.98 22.849 0 12.716 10.345 23.061 23.06 23.061h72.62c12.715 0 23.06-10.345 23.06-23.061 0-11.853-8.989-21.641-20.507-22.916 1.234-5.114 3.429-9.364 5.85-14.044 4.312-8.334 9.2-17.781 9.2-33.106v-56.969l6.517-3.762c14.681-8.476 22.797-12.151 27.227-13.714-.632 1.577-1.558 3.619-2.912 6.229-7.47 14.388-1.507 29.792 15.19 39.243a7.995 7.995 0 0 0 6.077.747 7.996 7.996 0 0 0 4.826-3.769c6.136-10.84 11.227-24.468 16.15-37.648 6.63-17.748 13.447-35.986 22.233-46.121a21.431 21.431 0 0 0 10.88 6.897zm-29.899-82.255a5.435 5.435 0 0 1 2.727-.723c1.939 0 3.854.998 4.87 2.758l32.695 56.629c.735 1.273.927 2.77.54 4.215s-1.302 2.646-2.575 3.381-2.77.927-4.215.54-2.646-1.302-3.381-2.575l-32.695-56.629c-1.509-2.611-.576-6.089 2.034-7.596zM84.97 229.046a5.52 5.52 0 0 1-4.216-.54c-1.273-.735-2.188-1.936-2.575-3.381s-.196-2.942.54-4.215l32.695-56.63a5.517 5.517 0 0 1 3.381-2.575 5.68 5.68 0 0 1 1.473-.196c.959 0 1.9.249 2.743.735 2.611 1.508 3.543 4.986 2.036 7.597L88.352 226.47a5.517 5.517 0 0 1-3.382 2.576zm62.841 36.082c-7.862 7.518-.893 20.941 2.456 27.393 2.683 5.167.765 9.521-2.157 12.747-3.852-8.281-7.418-17.83-10.897-27.144-7.831-20.963-15.896-42.541-28.652-54.656l19.824-34.336c7.338 2.624 13.846 2.931 19.752 3.204 7.679.354 14.312.66 23.057 5.71l48.768 28.156c-.179.787-.31 1.59-.383 2.412l-17.004-9.817a8 8 0 0 0-8 13.856l24.922 14.389v2.633l-18.302-10.567a8 8 0 0 0-8 13.856l26.158 15.103c.047.027.096.045.144.071v2.645l-23.259-13.429a8 8 0 0 0-8 13.856l31.231 18.031c-.01.894-.022 1.764-.036 2.612l-22.65-13.077c-29.854-17.234-41.754-20.549-48.972-13.648zm18.644 40.003c2.047-6.416 1.477-13.308-1.988-19.982-1.354-2.609-2.28-4.652-2.912-6.229 4.43 1.563 12.546 5.238 27.227 13.714l29.807 17.209c-.421 4.689-.935 7.808-1.418 9.872-1.351-1.567-3.201-4.005-5.606-7.771-11.435-17.905-31.378-14.905-44.983-6.896-.045.026-.084.056-.127.083zm15.958 10.343c5.306-1.473 11.583-1.311 15.667 5.082 6.442 10.089 14.335 20.024 23.988 17.2 10.166-2.969 13.429-16.049 13.429-53.83v-53.701c0-1.166.985-2.15 2.15-2.15 1.166 0 2.151.985 2.151 2.15v66.122a8 8 0 0 0 16 0V218.79c0-1.166.985-2.151 2.151-2.151s2.15.985 2.15 2.151v82.921a8 8 0 0 0 16 0v-68.792c0-1.166.985-2.15 2.151-2.15s2.151.985 2.151 2.15v78.744a8 8 0 0 0 16 0v-43.839c0-1.166.985-2.151 2.15-2.151 1.166 0 2.151.985 2.151 2.151v85.542c0 11.431-3.434 18.068-7.411 25.754-3.069 5.932-6.45 12.495-7.922 21.252h-45.483c-4.287-18.999-20.697-38.903-36.637-58.227-7.336-8.895-14.866-18.024-20.836-26.671zm123.745 107.959c0 3.893-3.167 7.061-7.06 7.061h-72.62c-3.893 0-7.06-3.167-7.06-7.061s3.167-7.061 7.06-7.061h72.62c3.893 0 7.06 3.168 7.06 7.061zm68.63-145.309c-3.479 9.314-7.046 18.862-10.897 27.144-2.922-3.226-4.84-7.579-2.157-12.747 3.349-6.451 10.318-19.875 2.456-27.393-7.096-6.785-18.731-3.683-47.488 12.799v-2.639l7.062-4.077a8 8 0 0 0-8-13.856l-1.751 1.011a18.293 18.293 0 0 0-1.309-1.877l6.102-3.523a8 8 0 0 0-8-13.856l-13.203 7.623a8.06 8.06 0 0 0-1.203.857v-2.796l21.026-12.14a8 8 0 0 0-8-13.856l-14.067 8.122a18.037 18.037 0 0 0-.898-2.115l46.346-26.758c8.746-5.05 15.378-5.355 23.058-5.71 5.906-.272 12.413-.58 19.751-3.204l19.824 34.336c-12.755 12.113-20.821 33.691-28.652 54.655zm48.592-53.209a5.016 5.016 0 1 1 8.689-5.016 5.016 5.016 0 0 1-8.689 5.016zm-334.76 0a5.016 5.016 0 1 1-8.688-5.017 5.016 5.016 0 0 1 8.688 5.017zm145.075 198.518a5.58 5.58 0 0 1-5.571 5.57 5.582 5.582 0 0 1-5.571-5.57c0-3.068 2.503-5.571 5.571-5.571s5.571 2.503 5.571 5.571z" clip-rule="evenodd" fill="#c39900" opacity="1" data-original="#000000" class=""></path></g></svg>