<svg xmlns="http://www.w3.org/2000/svg" xml:space="preserve" width="512" height="512" viewBox="0 0 128 128"><g fill="#c39900"><path d="M11.996 76.91a55 55 0 1 1 104.007-.002 10.9 10.9 0 0 1 4.04.55 58.999 58.999 0 1 0-112.088.002 11 11 0 0 1 4.041-.55"/><path d="M43.74 27.961a16.7 16.7 0 0 1-1.858-3.554A40.24 40.24 0 0 0 23 58.383a39.8 39.8 0 0 0 4.551 18.483l3.918-1.162A35.8 35.8 0 0 1 27 58.383 36.23 36.23 0 0 1 43.74 27.96Zm56.727 48.909A39.6 39.6 0 0 0 105 58.384a40.24 40.24 0 0 0-18.882-33.976 16.7 16.7 0 0 1-1.859 3.554A36.23 36.23 0 0 1 101 58.383a35.64 35.64 0 0 1-4.453 17.326ZM83 19.624a8.56 8.56 0 0 0-5.503-8.064 7.81 7.81 0 0 0-7.918 1.258 18.6 18.6 0 0 0-3.104-3.007 4.19 4.19 0 0 0-4.95 0 18.6 18.6 0 0 0-3.105 3.008 7.82 7.82 0 0 0-7.917-1.26A8.56 8.56 0 0 0 45 19.625c0 4.48 3.283 8.246 6.695 10.767 3.614 2.67 8.045 4.636 12.587 4.593 4.624-.044 9.287-2.36 12.83-5.216C80.18 27.294 83 23.752 83 19.624m-34 0a4.53 4.53 0 0 1 2.935-4.33 3.78 3.78 0 0 1 4.244.896c.027.031.06.054.09.082a13.68 13.68 0 0 0 .588 12.639C52.74 26.735 49 23.189 49 19.624m15.083 11.364a.3.3 0 0 1-.154.004C60.75 28.55 59 25.358 59 22c0-3.367 1.76-6.567 4.917-8.988.038-.016.128-.016.127-.024C67.24 15.433 69 18.633 69 22s-1.76 6.567-4.917 8.988m7.06-2.077a13.68 13.68 0 0 0 .588-12.639c.03-.028.063-.05.09-.082a3.77 3.77 0 0 1 4.244-.895A4.53 4.53 0 0 1 79 19.624c0 3.565-3.74 7.111-7.857 9.287m50.378 53.983a7.17 7.17 0 0 0-5.344-1.99l-11.522.568a13.7 13.7 0 0 1-4.623-.557l-12.985-3.85a17 17 0 0 1-1.61-.597 31.8 31.8 0 0 0-7.285-2.067 17.1 17.1 0 0 1-3.286 3.66 27.8 27.8 0 0 1 9.03 2.098 20 20 0 0 0 2.013.74l12.986 3.851a18 18 0 0 0 5.957.718s11.52-.569 11.536-.57a3.886 3.886 0 0 1 .36 7.71l-12.633.626a13.7 13.7 0 0 1-3.923-.367l-15.808-3.802a2 2 0 0 0-2.467 1.945V124H46.083V91.01a2 2 0 0 0-2.467-1.945l-15.807 3.802a14 14 0 0 1-3.923.368l-12.62-.627A3.69 3.69 0 0 1 8 88.752c0-1.913 1.551-3.995 3.626-3.853l11.522.569a18 18 0 0 0 5.957-.719l12.987-3.85a21 21 0 0 0 2.013-.74 27.8 27.8 0 0 1 9.03-2.099 17.1 17.1 0 0 1-3.287-3.66 31.8 31.8 0 0 0-7.285 2.068 17 17 0 0 1-1.609.595l-12.986 3.851a13.8 13.8 0 0 1-4.623.558l-11.508-.568C7.485 80.69 4 84.532 4 88.756a7.687 7.687 0 0 0 7.054 7.847l12.635.627a18 18 0 0 0 5.055-.474l13.34-3.208V126a2 2 0 0 0 2 2h39.832a2 2 0 0 0 2-2V93.548l13.34 3.208a17.8 17.8 0 0 0 5.056.473l12.648-.627a7.687 7.687 0 0 0 7.04-7.85 8.07 8.07 0 0 0-2.479-5.858"/><path d="M51 65a13 13 0 1 0 13-13 13.015 13.015 0 0 0-13 13m22 0a9 9 0 1 1-9-9 9.01 9.01 0 0 1 9 9"/></g></svg>