<svg xmlns="http://www.w3.org/2000/svg" xml:space="preserve" width="512" height="512" viewBox="0 0 500 500"><path fill="#c39900" fill-rule="evenodd" d="M396.092 451.344c-24.455-21.726-52.661-51.667-80.142-85.097-4.161-5.066-28.551-36.562-41.517-54.168-4.838-6.579-6.019-14.147-3.389-21.883a66 66 0 0 1 4.622-10.506c34.501 52.583 86.456 114.886 131.248 155.977zm-125.242-.018c15.105-13.568 34.493-33.243 53.707-54.495a942 942 0 0 1-12.487-14.603c-17.951 20.218-35.756 38.514-52.024 53.444zm-49.44-102.452h64.289c-7.696-10.016-15.982-20.943-21.895-28.972-7.409-10.056-9.273-22.117-5.259-33.95 10.81-31.847 40.662-53.683 74.93-53.683a80 80 0 0 1 18.699 2.197c8.204-19.108 15.853-44.229 15.602-83.73-.175-27.645-10.489-52.076-29.813-70.635-23.445-22.531-59.896-35.801-95.05-34.615-34.307 1.157-64.213 15.444-82.076 39.191-8.969 11.932-10.536 24.104-12.195 36.983-1.911 14.871-3.892 30.245-16.864 45.643-.064.088-.14.169-.216.257l-39.157 41.956c-2.29 2.447-1.807 6.263 1.023 8.058l23.596 15.012c2.904 1.847 5.066 4.254 6.609 7.327l5.604 11.214 8.105 4.856a6.6 6.6 0 0 1 3.15 4.856c.391 3.208-1.223 4.817-3.068 6.661 2.009 4.017 2.992 7.055 2.402 11.751l-3.074 24.618a14.292 14.292 0 0 0 16.525 15.964l50.89-8.14c4.23-.678 8.286.561 11.418 3.494 3.004 2.793 4.517 6.556 4.295 10.617l1.134 22.701a.393.393 0 0 0 .396.369m161.721-80.843c-26.209-30.093-73.086-30.101-99.302 0a698 698 0 0 0 14.381 21.387c16.8-24.859 53.705-24.884 70.547 0 5.089-7.292 9.904-14.445 14.374-21.387m-49.657 68.333c9.461-11.792 18.453-23.555 26.815-35.066-10.325-23.064-43.28-23.075-53.613-.006 8.356 11.511 17.343 23.274 26.798 35.072m59.334-24.881c7.555-10.801 4.234-21.323-1.514-31.794-13.937 21.241-30.783 44.205-49.289 67.146a956 956 0 0 0 12.61 14.988c14.141-17.39 26.675-33.903 38.193-50.34m27.23 118.258c-17.483-15.643-37.012-35.627-56.622-57.814 14.93-18.29 28.118-35.621 40.202-52.877 6.994-9.98 8.666-21.831 4.704-33.36-7.232-21.084-23.243-38.324-43.574-47.051 8.59-20.247 16.484-46.794 16.227-87.984-.199-31.297-11.915-58.983-33.868-80.072C321.174 45.667 281.088 31 242.464 32.297c-38.309 1.297-71.903 17.495-92.179 44.451-11.061 14.725-12.926 29.217-14.731 43.235-1.741 13.522-3.383 26.301-13.761 38.701l-39.039 41.821c-7.902 8.474-6.186 21.979 3.588 28.2l23.596 15.012c.888.572 1.414 1.151 1.887 2.103l6.469 12.926c1.095 2.195 3.076 3.044 5.259 4.365a6.59 6.59 0 0 0-.058 6.036l2.717 5.446c.52 1.029.66 1.876.52 3.021l-3.079 24.618c-2.284 18.285 13.514 33.548 31.712 30.631l51.071-8.146c.435.093.221.892.245 1.362l1.157 23.087a13.58 13.58 0 0 0 13.574 12.908h74.48a1454 1454 0 0 0 7.69 9.84c-19.686 22.275-39.191 42.201-56.652 57.826a6.606 6.606 0 0 0-1.028 8.672l18.313 26.517c2.233 3.236 6.762 3.803 9.723 1.262 15.841-13.586 37.742-35.51 59.415-59.415 20.908 23.309 41.447 43.784 59.678 59.415 2.965 2.544 7.494 1.97 9.723-1.262l18.313-26.517a6.62 6.62 0 0 0-1.029-8.671M289.911 126.633a6.606 6.606 0 0 1 0 9.338l-51.182 51.188c-2.785 2.779-7.364 2.53-9.823-.549l-20.475-25.588c-2.279-2.852-1.811-7.006 1.029-9.273a6.59 6.59 0 0 1 9.273 1.028l15.877 19.832 45.976-45.976c2.576-2.576 6.76-2.576 9.325 0m-36.672 90.619c-33.05 0-59.942-26.891-59.942-59.941 0-33.062 26.891-59.953 59.942-59.953 33.056 0 59.947 26.891 59.947 59.953 0 33.05-26.891 59.941-59.947 59.941m73.147-59.941c0 40.325-32.81 73.136-73.147 73.136-40.331 0-73.142-32.811-73.142-73.136 0-40.337 32.811-73.153 73.142-73.153 40.336 0 73.147 32.816 73.147 73.153" clip-rule="evenodd"/></svg>