<svg xmlns="http://www.w3.org/2000/svg" version="1.1" xmlns:xlink="http://www.w3.org/1999/xlink" width="512" height="512" x="0" y="0" viewBox="0 0 28 28" style="enable-background:new 0 0 512 512" xml:space="preserve"><g><path d="m26.111 15.3-5.68-3.28V5.424a.5.5 0 0 0-.25-.433L14.25 1.567a.5.5 0 0 0-.5 0L7.819 4.991a.5.5 0 0 0-.25.433v6.591L1.889 15.3a.5.5 0 0 0-.25.433v6.848a.5.5 0 0 0 .25.433l5.93 3.424a.5.5 0 0 0 .5 0L14 23.153l5.681 3.28a.5.5 0 0 0 .5 0l5.93-3.424a.5.5 0 0 0 .25-.433v-6.848a.5.5 0 0 0-.25-.428zm-6.18 3.279L15 15.728l4.931-2.847 4.93 2.847zM13.5 9.137v5.693l-4.931-2.847V6.29zm5.931 2.846L14.5 14.83V9.137l4.931-2.847zm-11.362.9L13 15.728l-4.931 2.846-4.93-2.846zm.5 6.559 4.931-2.849v5.694l-4.931 2.847zM14 2.577l4.931 2.847L14 8.271 9.069 5.424zM2.639 16.593l4.93 2.847v5.694l-4.93-2.847zm11.861 0 4.931 2.847v5.694L14.5 22.287zm5.931 8.541V19.44l4.93-2.847v5.694z" data-name="Layer 2" fill="#c39900" opacity="1" data-original="#000000"></path></g></svg>