<svg xmlns="http://www.w3.org/2000/svg" version="1.1" xmlns:xlink="http://www.w3.org/1999/xlink" width="512" height="512" x="0" y="0" viewBox="0 0 64 64" style="enable-background:new 0 0 512 512" xml:space="preserve" class=""><g><path d="M32 60a28 28 0 0 0 24.773-41.049 1 1 0 0 0-1.766.938A25.926 25.926 0 0 1 58 32C56.575 66.487 7.425 66.487 6 32 5.76 12.718 27.2-.206 44.112 8.994a1 1 0 0 0 .937-1.767A27.93 27.93 0 0 0 32 4C-5.14 5.535-5.14 58.466 32 60Z" fill="#c39900" opacity="1" data-original="#000000" class=""></path><path d="M32 24a7.795 7.795 0 0 1 2.544.425 1 1 0 0 0 1.271-.62C36.255 22.038 33.14 22.108 32 22c-13.265.548-13.264 19.452 0 20a10.011 10.011 0 0 0 10-10c-.102-1.16-.035-4.243-1.796-3.805a1 1 0 0 0-.62 1.27A7.76 7.76 0 0 1 40 32c-.401 10.597-15.6 10.597-16 0a8.01 8.01 0 0 1 8-8Z" fill="#c39900" opacity="1" data-original="#000000" class=""></path><path d="M41.575 16.735a1 1 0 0 0-.39-1.36A18.99 18.99 0 0 0 32 13C6.798 14.042 6.798 49.959 32 51a18.989 18.989 0 0 0 16.625-28.185 1 1 0 1 0-1.75.97C53.215 34.777 44.7 49.22 32 49a17.019 17.019 0 0 1-17-17c-.218-12.699 14.221-21.215 25.215-14.875a.998.998 0 0 0 1.36-.39Z" fill="#c39900" opacity="1" data-original="#000000" class=""></path><path d="m43.524 13.898.367 4.797-12.598 12.598a1 1 0 0 0 1.414 1.414l12.598-12.598 4.797.367a1 1 0 0 0 .783-.29l7.278-7.278a1.007 1.007 0 0 0-.63-1.704l-4.4-.337-.337-4.4a1.007 1.007 0 0 0-1.704-.63l-7.278 7.278a.998.998 0 0 0-.29.783Zm7.444-5.109c.4 4.657-.388 3.837 4.243 4.243l-5.415 5.415-3.941-.302-.302-3.94Z" fill="#c39900" opacity="1" data-original="#000000" class=""></path></g></svg>