<svg xmlns="http://www.w3.org/2000/svg" width="24" height="24" fill="none" class="w-6 h-6" viewBox="0 0 24 24"><path fill="#c39900" d="M7.11 1a3 3 0 0 1 2.94 2.312l.05.268.001.009.049.332c.124.77.323 1.526.596 2.258l.068.203a3 3 0 0 1-.743 2.96l-.004.006-.716.714a15 15 0 0 0 4.586 4.585l.72-.718.158-.145a3 3 0 0 1 3.004-.531c.732.273 1.49.474 2.26.598l.332.047.008.001A3 3 0 0 1 23 16.92v2.997l-.002.156a3 3 0 0 1-3.11 2.854l-.157-.01-.018-.002a20.8 20.8 0 0 1-9.066-3.225 20.5 20.5 0 0 1-6.3-6.302 20.8 20.8 0 0 1-3.22-9.101l-.002-.016A3 3 0 0 1 4.109 1zM4.007 3.006a1 1 0 0 0-.633.32 1 1 0 0 0-.26.748l.067.549a18.8 18.8 0 0 0 2.555 7.215l.293.469.005.006.279.426a18.5 18.5 0 0 0 4.987 4.988l.426.279.008.005.467.293a18.8 18.8 0 0 0 7.712 2.62 1 1 0 0 0 .763-.26 1 1 0 0 0 .324-.74v-3.029a1 1 0 0 0-.851-1.014 13.8 13.8 0 0 1-3.028-.754l-.003-.001a1 1 0 0 0-1.055.226l-1.266 1.265a1 1 0 0 1-1.202.162 17 17 0 0 1-6.375-6.375 1 1 0 0 1 .163-1.201l1.265-1.267a1 1 0 0 0 .226-1.054l-.001-.002a13.8 13.8 0 0 1-.753-3.02l-.017-.09a1 1 0 0 0-.893-.767L7.12 3H4.11z"/></svg>