<svg xmlns="http://www.w3.org/2000/svg" width="24" height="24" fill="none" class="w-6 h-6" viewBox="0 0 24 24"><path fill="#c39900ff" d="M11 21V7a1 1 0 1 1 2 0v14a1 1 0 1 1-2 0"/><path fill="#c39900ff" d="M16 4a3 3 0 0 0-3 3l-.005.103A1 1 0 0 1 11 7a3 3 0 0 0-3-3H3v13h6l.198.005A4 4 0 0 1 12 18.355q.082-.094.172-.183A4 4 0 0 1 15 17h6V4zm7 13a2 2 0 0 1-2 2h-6a2 2 0 0 0-2 2 1 1 0 1 1-2 0 2 2 0 0 0-1.803-1.99L9 19H3a2 2 0 0 1-1.99-1.803L1 17V4a2 2 0 0 1 2-2h5a5 5 0 0 1 4 2.001A5 5 0 0 1 16 2h5a2 2 0 0 1 2 2z"/></svg>