<svg xmlns="http://www.w3.org/2000/svg" width="24" height="24" fill="none" class="w-6 h-6" viewBox="0 0 24 24"><path fill="#22c55eff" d="M10.29 1.13a11 11 0 0 1 6.797 1.113l.412.226.086.055a1 1 0 0 1-.994 1.724l-.09-.047-.338-.185a9 9 0 1 0 4.727 6.563l-.07-.38-.014-.1a1 1 0 0 1 1.95-.397l.025.098.084.463A11 11 0 1 1 10.29 1.13"/><path fill="#22c55eff" d="M21.37 3.225a1 1 0 0 1 1.405 1.406l-.068.076-10 10a1 1 0 0 1-1.338.068l-.076-.068-3-3-.068-.076a1 1 0 0 1 1.406-1.406l.076.068L12 12.586l9.293-9.293z"/></svg>