<svg xmlns="http://www.w3.org/2000/svg" xml:space="preserve" width="512" height="512" viewBox="0 0 512 512"><path fill="#c39900" fill-rule="evenodd" d="M197.711 313.812c31.789 31.789 83.334 31.789 115.123 0s31.789-83.334 0-115.123-83.334-31.789-115.123 0-31.789 83.334 0 115.123m57.561 34.834c-51.027 0-92.395-41.369-92.395-92.396s41.368-92.395 92.395-92.395 92.395 41.369 92.395 92.395-41.368 92.396-92.395 92.396m12.312-216.381c12.438 10.322 16.552 11.306 32.242 7.356 13.644-3.434 14.603-2.967 20.132 9.887 6.328 14.712 9.7 17.408 25.448 20.362 13.604 2.552 14.262 3.386 13.83 17.244-.5 16.015 1.396 19.887 14.28 29.397 11.511 8.497 11.772 9.751 5.37 22.672-7.36 14.853-7.36 19.281 0 34.134 6.402 12.921 6.142 14.173-5.369 22.67-12.664 9.348-14.894 13.368-14.28 29.418.53 13.859-.399 14.704-13.83 17.223-15.748 2.954-19.12 5.65-25.449 20.363-5.529 12.854-6.488 13.321-20.132 9.886-15.689-3.949-19.805-2.967-32.243 7.356-11.451 9.504-13.172 9.504-24.624 0-12.438-10.323-16.552-11.306-32.242-7.356-13.643 3.434-14.603 2.967-20.132-9.886-6.328-14.712-9.701-17.408-25.448-20.362-13.603-2.552-14.261-3.387-13.829-17.244.499-16.013-1.396-19.886-14.28-29.397-11.511-8.497-11.772-9.751-5.37-22.671 7.36-14.854 7.361-19.28 0-34.135-6.402-12.921-6.142-14.173 5.369-22.67 12.885-9.512 14.78-13.385 14.28-29.398-.433-13.857.225-14.693 13.829-17.244 15.748-2.953 19.12-5.651 25.449-20.362 5.53-12.854 6.489-13.32 20.132-9.886 15.689 3.949 19.804 2.966 32.241-7.357 11.452-9.505 13.174-9.505 24.625 0zm-1.607 110.016a5.47 5.47 0 0 0 4.445 3.23l26.17 2.748-19.577 17.608a5.49 5.49 0 0 0-1.661 5.381l5.454 25.592-22.789-13.173a5.48 5.48 0 0 0-5.555.034l-22.729 13.139 5.489-25.756a5.49 5.49 0 0 0-1.696-5.217l-19.577-17.608 26.171-2.736a5.48 5.48 0 0 0 4.595-3.581l10.554-23.739zm-5.703-39.752 14.412 32.417 35.306 3.692c4.813.498 6.557 6.426 3.109 9.527l-26.387 23.742 7.399 34.717c.976 4.592-3.984 8.367-8.269 5.793l-30.572-17.673-30.725 17.762c-4.108 2.377-9.092-1.26-8.111-5.882l7.396-34.718-26.392-23.737c-3.475-3.126-1.745-9.146 3.359-9.558l35.059-3.666 14.412-32.417c1.957-4.415 8.135-4.231 10.005 0zM155.487 351.748a277.7 277.7 0 0 1-48.024 58.881l33.293 9.168a5.473 5.473 0 0 1 3.86 6.654l-13.07 50.174c32.713-25.908 60.097-57.352 81.276-92.957-6.894 1.732-13.737 3.331-20.044.238-11.064-5.426-12.35-22.182-18.254-26.92-3.473-2.788-13.278-3.625-19.036-5.238zm247.593 58.881a277.7 277.7 0 0 1-48.024-58.881c-5.758 1.612-15.563 2.45-19.035 5.237-5.905 4.739-7.192 21.495-18.255 26.921-6.307 3.093-13.15 1.494-20.044-.238 21.178 35.604 48.564 67.05 81.276 92.957l-13.07-50.173a5.475 5.475 0 0 1 3.86-6.655l33.292-9.167zm14.711-1.53c3.247 2.809 2.226 8.333-2.369 9.486l-37.534 10.335 15.686 60.196c1.282 4.936-4.367 8.893-8.636 5.721a351 351 0 0 1-57.655-52.149 353 353 0 0 1-43.121-60.538c-7.807 2.597-16.475 16.226-28.891 16.226s-21.086-13.63-28.891-16.226a353 353 0 0 1-43.121 60.539 351 351 0 0 1-57.655 52.149c-4.269 3.172-9.919-.785-8.636-5.721l15.687-60.196-37.534-10.336c-4.598-1.154-5.613-6.682-2.369-9.486a265.7 265.7 0 0 0 53.015-62.445c-9.713-9.383-2.874-26.311-6.468-33.639-3.383-6.898-19.547-12.06-22.394-24.197-2.845-12.129 9.253-23.997 9.253-32.567s-12.098-20.437-9.253-32.567c2.847-12.136 19.011-17.298 22.395-24.198 3.394-6.92-2.543-22.619 5.088-32.128 7.626-9.502 24.226-7.099 30.134-11.842 5.905-4.74 7.192-21.494 18.255-26.92 11.043-5.416 25.111 3.784 32.898 1.957 7.835-1.838 16.796-16.427 29.596-16.427s21.76 14.589 29.595 16.427c7.789 1.827 21.855-7.373 32.899-1.957 11.064 5.426 12.349 22.181 18.253 26.92 5.907 4.742 22.51 2.342 30.135 11.842 7.632 9.509 1.695 25.207 5.089 32.128 3.384 6.901 19.547 12.059 22.394 24.198 2.845 12.131-9.253 23.996-9.253 32.567s12.098 20.438 9.253 32.567c-2.847 12.138-19.01 17.297-22.395 24.198-3.605 7.351 3.249 24.252-6.467 33.639 14.327 23.381 32.106 44.39 53.015 62.446zM259.913 50.262l-4.641-12.749-4.641 12.749a5.48 5.48 0 0 1-4.981 3.607l-13.558.474 10.369 8.102a5.49 5.49 0 0 1 2.247 6.081l-3.737 13.034 11.145-7.516a5.49 5.49 0 0 1 6.226-.058l11.232 7.575-3.723-13.037a5.5 5.5 0 0 1 1.897-5.814l10.705-8.365-13.357-.467a5.48 5.48 0 0 1-5.183-3.614zm.512-30.639 8.528 23.426 24.898.871c5.107.169 7.282 6.678 3.096 9.87l-19.533 15.263 6.877 23.988c1.398 4.895-4.121 8.96-8.43 6.001l-20.588-13.885-20.666 13.938c-4.252 2.868-9.741-1.179-8.35-6.054l6.876-23.989-19.636-15.343c-4.092-3.197-1.754-9.622 3.199-9.788l24.898-.873 8.528-23.426c1.751-4.821 8.57-4.777 10.305 0zm171.443 101.865-4.641-12.749-4.641 12.749a5.48 5.48 0 0 1-4.981 3.607l-13.558.474 10.369 8.102a5.49 5.49 0 0 1 2.247 6.081l-3.737 13.034 11.145-7.517a5.49 5.49 0 0 1 6.226-.058l11.232 7.575-3.723-13.037a5.5 5.5 0 0 1 1.897-5.814l10.705-8.365-13.357-.467a5.48 5.48 0 0 1-5.182-3.614zm.512-30.639c-1.735-4.777-8.554-4.821-10.305 0l-8.528 23.426-24.898.873c-4.953.166-7.291 6.591-3.199 9.788l19.636 15.343-6.876 23.989c-1.391 4.875 4.098 8.922 8.35 6.054l20.666-13.938 20.588 13.885c4.309 2.959 9.828-1.107 8.43-6.001l-6.877-23.988 19.533-15.263c4.186-3.193 2.012-9.701-3.096-9.87l-24.898-.871-8.528-23.426zM89.407 127.227l-4.641-12.749-4.641 12.749a5.48 5.48 0 0 1-4.981 3.607l-13.559.474 10.369 8.102a5.49 5.49 0 0 1 2.247 6.081l-3.737 13.034 11.145-7.516a5.49 5.49 0 0 1 6.226-.058l11.232 7.575-3.723-13.037a5.5 5.5 0 0 1 1.897-5.814l10.705-8.365-13.357-.467a5.48 5.48 0 0 1-5.182-3.614zm.512-30.639c-1.735-4.777-8.554-4.821-10.305 0l-8.528 23.426-24.898.873c-4.953.166-7.291 6.591-3.199 9.788l19.636 15.343-6.876 23.989c-1.391 4.875 4.098 8.922 8.35 6.054l20.666-13.938 20.588 13.885c4.309 2.958 9.828-1.106 8.43-6.002l-6.877-23.988 19.533-15.263c4.186-3.193 2.012-9.701-3.096-9.87l-24.898-.871-8.528-23.426z"/></svg>