<svg xmlns="http://www.w3.org/2000/svg" version="1.1" xmlns:xlink="http://www.w3.org/1999/xlink" width="512" height="512" x="0" y="0" viewBox="0 0 512 512" style="enable-background:new 0 0 512 512" xml:space="preserve" class=""><g><path fill-rule="evenodd" d="M182.27 9.62c-51.854 0-93.891 42.036-93.891 93.891 0 51.854 42.037 93.89 93.891 93.89s93.891-42.036 93.891-93.89S234.125 9.62 182.27 9.62zm215.232 321.308c5.705-5.736 14.98-5.762 20.717-.057s5.762 14.98.057 20.717l-48.929 49.389c-5.667 5.698-14.855 5.76-20.6.17l-24.209-23.596c-5.8-5.642-5.928-14.917-.287-20.717 5.642-5.8 14.917-5.928 20.717-.287l13.813 13.465zm82.963 99.553c20.037-6.937 29.217-35.189 17.084-52.579-5.104-7.316-5.105-16.582-.001-23.897 12.133-17.389 2.954-45.642-17.083-52.58-8.43-2.919-13.877-10.414-14.047-19.333-.405-21.2-24.438-38.662-44.727-32.497-8.535 2.594-17.348-.268-22.728-7.384-12.789-16.913-42.496-16.914-55.285-.001-5.38 7.115-14.192 9.98-22.727 7.386-20.288-6.166-44.322 11.295-44.728 32.495-.171 8.919-5.616 16.416-14.046 19.334-20.037 6.936-29.218 35.189-17.085 52.579 5.104 7.316 5.105 16.582.001 23.898-12.134 17.389-2.954 45.643 17.083 52.58 8.43 2.918 13.877 10.414 14.047 19.333.405 21.2 24.438 38.662 44.726 32.497 8.535-2.594 17.348.268 22.728 7.384 12.789 16.914 42.496 16.914 55.286.001 5.38-7.116 14.192-9.979 22.727-7.385 20.288 6.166 44.321-11.296 44.727-32.496.171-8.921 5.617-16.417 14.048-19.335zM371.32 284.089c-45.212 0-81.864 36.652-81.864 81.864s36.652 81.864 81.864 81.864 81.864-36.652 81.864-81.864c0-45.213-36.652-81.864-81.864-81.864zM9.036 367.163c6.716-89.524 82.068-160.696 173.235-160.696 38.391 0 73.975 12.622 102.812 33.919-14.223 8.842-24.525 24.104-24.857 41.397-.042 2.213-1.191 3.797-3.283 4.521-30.061 10.406-43.175 50.765-24.973 76.854 1.266 1.815 1.268 3.772.001 5.587a45.351 45.351 0 0 0-5.762 11.443H21.121a12.068 12.068 0 0 1-12.085-13.025z" clip-rule="evenodd" fill="#c39900" opacity="1" data-original="#000000" class=""></path></g></svg>