<svg xmlns="http://www.w3.org/2000/svg" version="1.1" xmlns:xlink="http://www.w3.org/1999/xlink" width="512" height="512" x="0" y="0" viewBox="0 0 512 512" style="enable-background:new 0 0 512 512" xml:space="preserve" class=""><g><path d="M159.48 330.75h42.15c3.86 0 7 3.15 7 7v38.38c0 3.88-3.15 7-7 7h-42.15c-3.88 0-7-3.12-7-7v-38.38c0-3.85 3.12-7 7-7zm35.15 14h-28.18v24.38h28.18zm-109.92-14h42.15c3.88 0 7 3.15 7 7v38.38c0 3.88-3.12 7-7 7H84.71c-3.85 0-7-3.12-7-7v-38.38c-.01-3.85 3.14-7 7-7zm35.17 14H91.71v24.38h28.18v-24.38zm36.8-32.34c-3.85 0-7-3.15-7-7s3.15-7 7-7h48.67c3.88 0 7 3.15 7 7 0 3.86-3.12 7-7 7zm-71.97 0c-3.85 0-7-3.15-7-7s3.15-7 7-7h48.98c3.85 0 7 3.15 7 7 0 3.86-3.15 7-7 7zm71.97-46.8c-3.85 0-7-3.12-7-7 0-3.85 3.15-7 7-7h63.95c3.86 0 7 3.15 7 7 0 3.88-3.15 7-7 7zm-71.97 0c-3.85 0-7-3.12-7-7 0-3.85 3.15-7 7-7h48.98c3.85 0 7 3.15 7 7 0 3.88-3.15 7-7 7zm71.97-46.77c-3.85 0-7-3.15-7-7 0-3.88 3.15-7 7-7h80.42c3.88 0 7 3.12 7 7 0 3.85-3.12 7-7 7zm-71.97 0c-3.85 0-7-3.15-7-7 0-3.88 3.15-7 7-7h48.98c3.85 0 7 3.12 7 7 0 3.85-3.15 7-7 7zm114.94-65.99c-1.67 3.46-5.87 4.93-9.33 3.26-3.49-1.67-4.93-5.87-3.26-9.33l25.37-52.64c2.55-5.27 10.06-5.22 12.59 0l25.34 52.64c1.7 3.46.23 7.65-3.23 9.33-3.49 1.67-7.65.2-9.33-3.26l-8.14-16.84h-21.91zm19.08-39.57-4.22 8.73h8.42zm-75.77 22.11c-2.72-2.75-2.72-7.17 0-9.89a6.96 6.96 0 0 1 9.89 0l5.39 5.36c6.86-11.74-1.59-26.67-15.34-26.67-15.76 0-23.7 19.13-12.56 30.3 4.25 4.22 10.43 6.12 16.47 4.76zm25.37 5.55 4.48 4.48a7.05 7.05 0 0 1 0 9.92c-2.72 2.72-7.17 2.72-9.89 0l-5.27-5.3c-20.98 11-46.49-4.2-46.49-28.12 0-17.52 14.23-31.75 31.75-31.75 26.13 0 41.01 29.97 25.42 50.77zm-72.2-75.63h169.99c11.34 0 20.61 9.27 20.61 20.61v75.71c0 11.34-9.27 20.61-20.61 20.61H96.13c-11.34 0-20.61-9.27-20.61-20.61V85.92c0-11.34 9.27-20.61 20.61-20.61zm169.99 14.01H96.13c-3.63 0-6.6 3-6.6 6.6v75.71c0 3.6 2.98 6.6 6.6 6.6h169.99c3.6 0 6.6-3 6.6-6.6V85.92c.01-3.6-3-6.6-6.6-6.6zm37.34 266.71c-3-2.41-3.52-6.8-1.11-9.81 2.41-3.03 6.8-3.54 9.81-1.13l19.79 15.73 35.04-60.86a6.994 6.994 0 0 1 9.52-2.58c3.32 1.93 4.48 6.18 2.55 9.52l-39.66 68.77c-2.38 3-6.77 3.51-9.81 1.11zm33.64 85.04c-80.59-42.24-80.42-50.66-78.69-134.84.17-7.91.34-16.5.45-25.71.06-3.43 2.58-6.26 5.9-6.8 27.24-4.39 52.21-17.86 70.41-38.52 2.81-3.2 7.77-3.15 10.54.03 17.97 20.58 43.34 34.16 70.38 38.49 3.46.57 5.95 3.6 5.87 7.03.11 9.13.28 17.66.45 25.48 1.73 84.22 1.9 92.61-78.77 134.9a6.944 6.944 0 0 1-6.54-.06zm-64.74-134.56c-1.56 75.23-1.73 83.76 68.06 120.56 69.79-36.79 69.62-45.33 68.06-120.56-.11-6.21-.25-12.84-.37-20.07-25.65-5.3-49.35-17.89-67.69-36.4-18.34 18.51-42.04 31.1-67.69 36.4-.12 7.23-.26 13.86-.37 20.07zm64.74 163.44c-12.64-6.6-23.73-12.59-33.45-18.17l-18.28 44.05c-2.41 5.81-10.83 5.81-13.07-.4l-13.83-36.6-42.01 18.11c-5.67 2.41-12.05-3.29-8.93-9.75l16.53-38.13H69.14c-16.98 0-30.84-13.86-30.84-30.84V57.01c0-16.98 13.86-30.84 30.84-30.84h247.44c16.98 0 30.84 13.86 30.84 30.84v141.25c11.45 12.56 24.89 23.07 39.74 31.21 15.68 8.56 32.94 14.51 51.02 17.43 3.49.57 5.95 3.6 5.87 7.03.14 11.88.4 22.96.6 33.11.91 43.65 1.47 71.4-5.02 92.58l33.68 77.58c3.12 6.46-3.26 12.16-8.93 9.75l-42.01-18.11-13.83 36.6c-2.24 6.21-10.66 6.21-13.07.4l-18.31-44.02c-9.72 5.58-20.83 11.57-33.51 18.2-2.12 1.12-4.59 1.01-6.55-.07zm-45.58-25.37c-21.03-12.98-34.33-24.32-42.63-37.79l-21.8 50.34 32.57-14.03c3.83-1.53 7.91.28 9.3 3.97l10.26 27.13zm-50.34-55.02c-6.46-21.17-5.9-48.93-4.99-92.52.23-10.23.45-21.34.6-33.34a6.944 6.944 0 0 1 5.87-6.8c18.08-2.92 35.35-8.87 51.02-17.43 14.85-8.14 28.29-18.65 39.74-31.21V57.01c0-9.27-7.6-16.84-16.84-16.84H69.14c-9.24 0-16.84 7.57-16.84 16.84v331.23c0 9.24 7.6 16.84 16.84 16.84h160.98zm190.74 17.3c-8.31 13.44-21.6 24.75-42.63 37.73l12.33 29.62 10.26-27.13c1.39-3.69 5.47-5.5 9.3-3.97l32.57 14.03zM250.14 287.32c-2.04 99.01-2.24 109.93 90.28 158.63 92.52-48.7 92.32-59.61 90.28-158.63-.17-8.53-.37-17.69-.51-27.67-34.16-6.72-65.68-23.53-89.77-48.44-24.09 24.92-55.62 41.73-89.77 48.44-.15 9.99-.34 19.14-.51 27.67z" fill="#c39900" opacity="1" data-original="#000000" class=""></path></g></svg>