<svg xmlns="http://www.w3.org/2000/svg" xml:space="preserve" width="512" height="512" class="hovered-paths" viewBox="0 0 500 500"><path fill="#c39900" fill-rule="evenodd" d="M386.15 79.752c13.166 0 23.838 10.673 23.838 23.838s-10.673 23.838-23.838 23.838-23.838-10.673-23.838-23.838c-.001-13.165 10.672-23.838 23.838-23.838M250.157 189.976c-2.064 0-3.69.683-4.833 2.484-17.189 27.068-30.887 45.236-30.722 81.264.149 32.457 13.618 81.039 21.688 116.251a8.747 8.747 0 0 1-6.324 10.414l-1.417.368c-3.903 1.014-7.863-.677-9.829-4.197l-37.516-67.141c-.482-.862-1.809-.408-1.661.569l9.801 64.572a9.655 9.655 0 0 1-8.905 11.123l-1.609.113c-4.249.298-8.042-2.062-9.651-6.005-18.025-44.146-32.749-89.173-45.02-134.853-1.659-6.177-3.988-11.211-7.62-16.475-17.939-25.998-34.787-53.172-50.574-81.488a10.62 10.62 0 0 1 3.402-14.045l.796-.529c4.828-3.211 11.362-1.954 14.654 2.82a298 298 0 0 0 27.399 34.083c13.114 14.066 27.125 28.708 47.155 31.452 23.11 3.167 30.941-5.845 45.356-20.26 41.025-41.025 49.519-41.025 90.544 0 14.415 14.415 22.246 23.427 45.356 20.26 20.03-2.744 34.04-17.386 47.155-31.452a298 298 0 0 0 27.399-34.083c3.292-4.773 9.826-6.03 14.654-2.82l.796.529a10.62 10.62 0 0 1 3.402 14.045c-15.787 28.315-32.635 55.489-50.574 81.488-3.632 5.264-5.961 10.298-7.62 16.475-12.271 45.68-26.995 90.707-45.02 134.853-1.61 3.943-5.403 6.303-9.651 6.005l-1.609-.113a9.656 9.656 0 0 1-8.905-11.123l9.801-64.572c.148-.977-1.179-1.431-1.661-.569l-37.516 67.141c-1.966 3.52-5.926 5.211-9.829 4.197l-1.417-.368a8.747 8.747 0 0 1-6.324-10.414c8.07-35.212 21.539-83.794 21.688-116.251.166-36.028-13.533-54.196-30.722-81.264-1.009-1.593-2.631-2.484-4.517-2.484M97.201 308.711l5.781-6.159c2.677-2.85 2.658-6.834.088-9.447a6.673 6.673 0 0 0-9.425-.09l-6.509 6.884c-2.356 2.488-2.24 6.945.639 9.452a6.69 6.69 0 0 0 9.426-.64m-15.164 24.752 2.921-6.679c1.57-3.626.274-7.327-3.025-8.956a6.677 6.677 0 0 0-8.931 3.014l-3.441 7.87c-1.343 3.104.298 7.273 3.884 8.624a6.677 6.677 0 0 0 8.592-3.873m-4.071 25.749-.001-6.802c0-3.971-2.614-6.851-6.3-7.053a6.676 6.676 0 0 0-7.03 6.274l-.002 8.26c0 3.332 3.178 6.538 7.032 6.327a6.675 6.675 0 0 0 6.301-7.006m7.008 25.615-2.921-6.673c-1.586-3.629-5.16-5.212-8.608-3.913a6.676 6.676 0 0 0-3.903 8.578l3.441 7.876c1.336 3.086 5.505 4.753 8.949 3.054a6.676 6.676 0 0 0 3.042-8.922m18.032 24.221-5.784-6.159c-2.718-2.852-6.671-3.078-9.446-.663a6.69 6.69 0 0 0-.665 9.422l6.51 6.888c2.371 2.512 6.792 2.637 9.449-.065a6.673 6.673 0 0 0-.064-9.423m28.311 21.026a6.685 6.685 0 0 1 2.47 9.115c-1.876 3.28-6.159 4.306-9.136 2.475l-9.027-5.532a6.685 6.685 0 0 1-1.924-9.247c2.007-3.067 5.982-3.952 9.262-1.93zm36.732 16.067a6.68 6.68 0 0 1 4.274 8.413c-1.161 3.571-5.1 5.461-8.43 4.282l-10.954-3.869a6.685 6.685 0 0 1-3.859-8.623c1.305-3.427 5.035-5.151 8.632-3.866zm42.589 9.766a6.68 6.68 0 0 1-1.885 13.227l-12.149-2.004a6.67 6.67 0 0 1-5.352-7.762c.667-3.644 4.14-6 7.768-5.358zm45.388 2.702a6.667 6.667 0 0 1 6.785 6.535c.073 3.729-2.98 6.797-6.546 6.797h-12.549a6.667 6.667 0 0 1-6.527-6.796c.072-3.657 3-6.535 6.801-6.535zm44.97-4.603a6.67 6.67 0 0 1 7.753 5.361c.658 3.589-1.745 7.151-5.369 7.765l-12.132 2.001a6.68 6.68 0 0 1-7.546-5.674c-.53-3.728 2.039-6.942 5.677-7.555zm41.31-11.534a6.685 6.685 0 0 1 8.614 3.873c1.297 3.406-.42 7.385-3.881 8.63l-10.955 3.869a6.68 6.68 0 0 1-8.407-4.29c-1.132-3.483.666-7.129 4.295-8.42zm34.753-17.53a6.685 6.685 0 0 1 9.241 1.943c2.069 3.162 1.035 7.444-1.948 9.262l-9.028 5.532a6.687 6.687 0 0 1-9.112-2.489c-1.821-3.183-.813-7.09 2.491-9.128zm25.74-22.076-5.781 6.158c-2.677 2.85-2.658 6.834-.088 9.447a6.674 6.674 0 0 0 9.425.09l6.509-6.883c2.357-2.488 2.24-6.945-.639-9.452a6.69 6.69 0 0 0-9.426.64m15.164-24.752-2.921 6.679c-1.57 3.626-.274 7.327 3.025 8.956a6.677 6.677 0 0 0 8.931-3.014l3.441-7.87c1.343-3.104-.298-7.273-3.884-8.624a6.676 6.676 0 0 0-8.592 3.873m4.071-25.749.001 6.801c0 3.971 2.614 6.851 6.3 7.053a6.676 6.676 0 0 0 7.03-6.274l.001-8.26c0-3.332-3.178-6.538-7.032-6.327a6.675 6.675 0 0 0-6.3 7.007m-7.008-25.616 2.921 6.673c1.586 3.629 5.16 5.212 8.608 3.913a6.677 6.677 0 0 0 3.903-8.578l-3.441-7.876c-1.336-3.086-5.505-4.753-8.949-3.054a6.677 6.677 0 0 0-3.042 8.922m-18.032-24.22 5.784 6.159c2.718 2.852 6.671 3.078 9.445.663a6.69 6.69 0 0 0 .665-9.422l-6.51-6.888c-2.371-2.512-6.792-2.637-9.449.065a6.674 6.674 0 0 0 .065 9.423M250 28.06c13.166 0 23.838 10.673 23.838 23.838S263.165 75.736 250 75.736s-23.838-10.673-23.838-23.838S236.835 28.06 250 28.06m-85.329 135.785c-13.166 0-23.838 10.673-23.838 23.838s10.673 23.838 23.838 23.838 23.838-10.673 23.838-23.838-10.673-23.838-23.838-23.838m170.346.669c-13.166 0-23.838 10.673-23.838 23.838s10.673 23.838 23.838 23.838 23.838-10.673 23.838-23.838-10.672-23.838-23.838-23.838M317.394 28.621c-4.443-1.425-9.157.437-11.428 4.513-9.93 17.828-21.32 32.111-34.258 42.635-12.78 10.396-30.636 10.396-43.416 0-12.937-10.524-24.328-24.808-34.258-42.635-4.124-7.404-14.922-6.051-17.969 1.109-5.64 13.257-12.059 37.403-21.632 58.145-10.168 22.029-12.753 37.153-39.411 43.257-9.026 2.067-19.095 2.304-29.86 1.321-2.271-.207-1.688 1.449-1.009 1.691a23.9 23.9 0 0 1 11.682 8.964c9.538 13.829 19.18 25.3 30.608 37.298a.89.89 0 0 0 1.526-.475c3.235-20.291 22.596-34.302 43.138-30.699a.89.89 0 0 0 1.04-.772c3.285-27.422 9.556-53.809 16.868-81.497.21-.794 1.302-.903 1.663-.165 11.701 23.84 23.199 49.168 27.38 70.618 1.314 6.741 2.341 13.818 3.129 21.169a.891.891 0 0 0 1.486.566c3.713-3.366 14.927-9.009 27.326-9.148 10.52-.117 22.24 4.571 27.336 9.115a.891.891 0 0 0 1.481-.57c.788-7.339 1.813-14.403 3.125-21.132 4.181-21.451 15.68-46.778 27.38-70.618.362-.738 1.454-.629 1.663.165 7.3 27.64 13.562 53.984 16.851 81.354a.89.89 0 0 0 1.026.774c20.573-3.288 39.7 10.953 42.702 31.246a.89.89 0 0 0 1.526.486c10.377-10.844 32.235-42.91 42.594-46.676.742-.27 1.11-1.874-.848-1.695-10.764.983-20.833.746-29.86-1.321-26.659-6.104-29.244-21.227-39.411-43.257-9.571-20.737-15.995-44.895-21.632-58.145-1.327-3.123-3.445-4.628-6.538-5.621M115.858 80.154c13.166 0 23.838 10.673 23.838 23.838s-10.673 23.838-23.838 23.838-23.838-10.673-23.838-23.838c-.001-13.165 10.672-23.838 23.838-23.838" class="hovered-path" clip-rule="evenodd"/></svg>