<svg xmlns="http://www.w3.org/2000/svg" version="1.1" xmlns:xlink="http://www.w3.org/1999/xlink" width="512" height="512" x="0" y="0" viewBox="0 0 513 513" style="enable-background:new 0 0 512 512" xml:space="preserve" class=""><g><g fill="#000" fill-rule="evenodd" clip-rule="evenodd"><path d="M48.675 80.623c64.843.296 110.041 8.448 140.441 22.973 29.485 14.087 45.275 34.215 52.049 60.956a16 16 0 0 0 31.02 0c6.774-26.741 22.564-46.869 52.049-60.956 30.4-14.525 75.598-22.677 140.441-22.973v288c-115.488 0-172.207 20.701-208.002 56.088-35.67-35.224-92.464-56.052-207.699-56.088-.136-.354-.3-.975-.3-1.93zM36.448 51.03a31.94 31.94 0 0 1 12.287-2.408h.012c66.689.299 117.468 8.566 154.164 26.099 23.868 11.403 41.619 26.671 53.764 45.608 12.145-18.937 29.896-34.205 53.764-45.608 36.696-17.533 87.475-25.8 154.164-26.1h.012a31.94 31.94 0 0 1 32.06 32.022v287.979a31.997 31.997 0 0 1-32 32c-126.105 0-169.456 25.43-195.506 57.994a16 16 0 0 1-24.993-.005c-25.872-32.373-69.405-57.989-195.501-57.989-9.651 0-18.097-4.087-23.888-10.888-5.589-6.564-8.112-14.896-8.112-23.042V80.648A31.94 31.94 0 0 1 36.448 51.03z" fill="#c39900" opacity="1" data-original="#000000" class=""></path><path d="M256.675 144.623c8.836 0 16 7.163 16 16v288c0 8.836-7.164 16-16 16-8.837 0-16-7.164-16-16v-288c0-8.837 7.163-16 16-16z" fill="#c39900" opacity="1" data-original="#000000" class=""></path></g></g></svg>