<svg xmlns="http://www.w3.org/2000/svg" xml:space="preserve" width="512" height="512" viewBox="0 0 500 500"><path fill="#c39900" fill-rule="evenodd" d="m90.988 169.465-15.651-43.678-.021-.066a7 7 0 0 0-2.849-3.955 7.04 7.04 0 0 0-6.801-.598l-.064.026-43.671 15.648a7.024 7.024 0 0 0 4.739 13.225l23.117-8.284c.374-.134.771-.029 1.03.272s.304.709.116 1.059a225 225 0 0 0-17.003 40.807A225.8 225.8 0 0 0 24.08 250c0 62.385 25.287 118.865 66.171 159.749S187.615 475.92 250 475.92c22.929 0 45.119-3.445 66.079-9.849a225 225 0 0 0 60.253-28.758 7.046 7.046 0 1 0-7.88-11.682c-17.235 11.647-36.221 20.814-56.451 26.995-19.551 5.973-40.368 9.187-62.001 9.187-58.491 0-111.445-23.708-149.775-62.038S38.187 308.491 38.187 250c0-21.634 3.214-42.451 9.187-62.002a210 210 0 0 1 18.406-42.633.92.92 0 0 1 .898-.471.92.92 0 0 1 .804.62l10.28 28.691a7.024 7.024 0 1 0 13.226-4.74m30.779-96.997a7.046 7.046 0 0 1 1.901-9.781 225 225 0 0 1 60.253-28.758A225.8 225.8 0 0 1 250 24.08c62.385 0 118.865 25.287 159.749 66.171S475.92 187.615 475.92 250c0 22.929-3.445 45.12-9.849 66.079a225 225 0 0 1-17.003 40.807c-.188.35-.143.758.116 1.059s.656.405 1.029.272l23.117-8.283a7.025 7.025 0 0 1 4.739 13.225l-43.671 15.648-.064.026a7.04 7.04 0 0 1-6.801-.598 7 7 0 0 1-2.849-3.955q-.009-.033-.021-.066l-15.651-43.677a7.025 7.025 0 0 1 13.225-4.739l10.28 28.69a.92.92 0 0 0 .804.62.92.92 0 0 0 .898-.471 210 210 0 0 0 18.406-42.633c5.973-19.551 9.187-40.368 9.187-62.002 0-58.491-23.708-111.445-62.038-149.775-38.329-38.332-91.283-62.04-149.774-62.04-21.633 0-42.45 3.214-62.002 9.187-20.229 6.18-39.216 15.348-56.45 26.995a7.046 7.046 0 0 1-9.781-1.901m198.229 176.221c0 39.958-32.392 72.35-72.35 72.35s-72.35-32.392-72.35-72.35 32.392-72.35 72.35-72.35c21.432 0 40.687 9.319 53.935 24.125a.9.9 0 0 0 .694.313.9.9 0 0 0 .698-.304l33.582-36.488a7.04 7.04 0 0 1 10.359 9.533l-12.492 13.573-.005.005-.009.01-86.956 94.481a.9.9 0 0 1-.684.304.9.9 0 0 1-.689-.292l-26.048-27.406a7.035 7.035 0 0 0-10.194 9.698l31.923 33.587a7.035 7.035 0 0 0 9.946.248q.165-.159.321-.321l.018-.019 63.559-69.06a.92.92 0 0 1 .908-.278c.34.08.591.32.687.656a72.4 72.4 0 0 1 2.797 19.985m-201.045-107.98a.934.934 0 0 1 .799-.903c13.116-1.98 26.607-4.749 40.278-8.356 34.166-9.014 64.795-21.991 89.483-36.944a.92.92 0 0 1 .974 0c24.69 14.952 55.32 27.929 89.487 36.944 13.671 3.607 27.162 6.377 40.278 8.357a.93.93 0 0 1 .799.903c3.228 117.432 4.29 241.399-130.756 285.417a.9.9 0 0 1-.587 0C114.66 382.108 115.722 258.141 118.951 140.709m85.553 204.8h93.835a7.053 7.053 0 0 1 0 14.106h-93.835a7.053 7.053 0 0 1 0-14.106" clip-rule="evenodd"/></svg>