<svg xmlns="http://www.w3.org/2000/svg" version="1.1" xmlns:xlink="http://www.w3.org/1999/xlink" width="512" height="512" x="0" y="0" viewBox="0 0 512 512" style="enable-background:new 0 0 512 512" xml:space="preserve"><g><path fill-rule="evenodd" d="M83.816 201.047H21.5v258.419h210.721v-110.01c-79.983-2.838-145.432-67.097-148.405-148.409zm48.115-11c2.337-45.212 33.476-84.761 78.376-96.792 56.498-15.138 114.559 18.352 129.705 74.879 17.416 64.999-29.461 129.614-96.792 133.194V195.547a5.5 5.5 0 0 0-5.5-5.5zm4.313 35.792a106.364 106.364 0 0 1-4.302-24.792h100.279v24.792zm18.676 35.791a105.15 105.15 0 0 1-14.734-24.792h92.035v24.792zm-6.513 9.343a5.48 5.48 0 0 1-.533-.635 116.136 116.136 0 0 1-20.737-36.92l-2.321-7.622c-16.526-61.664 19.617-126.263 82.657-143.154 62.341-16.704 126.454 20.332 143.154 82.656 16.705 62.342-20.331 126.454-82.656 143.154-43.711 11.713-90.251-2.836-119.564-37.479zm83.814 1.657v28.708c-25.172-1.296-48.985-11.604-67.158-28.708zm195.063 55.447-12.046-12.046c-1.164-1.164-3.104-1.164-4.268 0l-54.807 54.807c-1.164 1.164-1.164 3.104 0 4.268l12.046 12.046c1.164 1.164 3.104 1.164 4.267 0l54.808-54.808c1.163-1.164 1.164-3.103 0-4.267zm-63.168 19.253 23.346-23.346-30.742-30.742a153.773 153.773 0 0 1-23.542 23.15zm66.503-2.766 53.518 53.518c8.484 8.484 8.484 22.402 0 30.887l-15.036 15.036c-4.256 4.256-9.854 6.385-15.444 6.385v-.021c-5.603 0-11.202-2.121-15.443-6.363l-53.518-53.518zM71.967 225.839a5.5 5.5 0 0 1 0 11h-26a5.5 5.5 0 0 1 0-11zm0 35.791a5.5 5.5 0 0 1 0 11h-26a5.5 5.5 0 0 1 0-11zm0 39.831a5.5 5.5 0 0 1 0 11h-26a5.5 5.5 0 0 1 0-11zm102 39.625a5.5 5.5 0 0 1 0 11h-128a5.5 5.5 0 0 1 0-11zm26.5 31.25a5.5 5.5 0 0 1 0 11h-154.5a5.5 5.5 0 0 1 0-11zm0 31.25a5.5 5.5 0 0 1 0 11h-154.5a5.5 5.5 0 0 1 0-11zM94.701 195.328c.021-25.397 6.855-49.92 19.182-71.27 39.487-68.393 126.971-91.827 195.349-52.349 68.372 39.474 91.801 126.978 52.327 195.349a143.626 143.626 0 0 1-9.396 14.246 5.487 5.487 0 0 0-.581.767 142.725 142.725 0 0 1-29.666 29.1c-.206.13-.406.275-.598.435-13.674 9.849-29.336 17.431-46.586 22.053-36.493 9.998-76.003 4.488-108.501-14.275-44.284-25.566-71.423-72.586-71.53-124.056z" clip-rule="evenodd" fill="#c39900" opacity="1" data-original="#000000"></path></g></svg>