<svg xmlns="http://www.w3.org/2000/svg" xml:space="preserve" width="512" height="512" viewBox="0 0 512 512"><path fill="#c39900" fill-rule="evenodd" d="M61.517 268.806c0 3.012-.46 5.541 1.437 7.438a4.86 4.86 0 0 0 3.438 1.437h41.843a4.906 4.906 0 0 0 4.875-4.875v-4zm-5.063-13.4c1.495.3 1.316.751 3.44.751h54.5a7.67 7.67 0 0 0 5.117-1.852l.012.013a4.9 4.9 0 0 0 1.739-3.609c0-16.309-1.8-26.617 11.122-41.046a46.44 46.44 0 0 0 12.224-31.119c0-66.215-114.593-66.78-114.593-.371A46.43 46.43 0 0 0 42.24 209.29c12.479 13.935 10.784 25.436 10.784 41.419a4.9 4.9 0 0 0 1.739 3.609l.012-.013a7 7 0 0 0 1.677 1.1zm45.593 34.916H72.58c6.048 10.1 23.417 10.1 29.467 0m23.709-24.919c0 7.68.832 13.8-5.142 19.778a17.7 17.7 0 0 1-4.645 3.336c-3.6 20.846-32.009 29.366-48.851 14.695a25.2 25.2 0 0 1-8.46-14.695 17.56 17.56 0 0 1-9.787-15.715v-7.179a19.4 19.4 0 0 1-2.492-1.884v-.024a17.4 17.4 0 0 1-6-13.006c.089-12.457 1.614-22.818-7.524-33.021a59 59 0 0 1-15.485-39.515c0-83.13 139.885-82.632 139.885.371a59 59 0 0 1-15.485 39.516c-9.776 10.917-7.862 20.379-7.862 32.649a17.4 17.4 0 0 1-6 13.006v.024a19 19 0 0 1-2.155 1.664zM403.3 463.139h47.788v-302.52H403.3zm-114.126 0h47.788V275.5h-47.793v187.639zm-114.126 0h47.788V332.782h-47.793v130.357zm-114.126 0h47.788V355.916H60.917v107.223zm-38.599 12.645a6.323 6.323 0 1 1 0-12.645h25.948V349.593a6.323 6.323 0 0 1 6.323-6.323h60.434a6.323 6.323 0 0 1 6.323 6.323v113.546H162.4v-136.68a6.323 6.323 0 0 1 6.323-6.323h60.434a6.323 6.323 0 0 1 6.323 6.323v136.68h41.046V269.177a6.323 6.323 0 0 1 6.323-6.323h60.431a6.323 6.323 0 0 1 6.323 6.323v193.962h41.046V154.3a6.323 6.323 0 0 1 6.323-6.323h60.434a6.323 6.323 0 0 1 6.323 6.323v308.839h25.948a6.323 6.323 0 1 1 0 12.645zM441.941 61.729 203.2 250.5a6.3 6.3 0 0 1-7.8-9.88L433.865 52.064 403.871 48.8a6.309 6.309 0 0 1 1.329-12.549l45.3 4.933a6.31 6.31 0 0 1 5.607 6.94l-4.932 45.3a6.309 6.309 0 0 1-12.547-1.334z"/></svg>