<svg xmlns="http://www.w3.org/2000/svg" width="24" height="24" fill="none" class="w-6 h-6" viewBox="0 0 24 24"><path fill="#c39900" d="M18.991 9.653a7 7 0 0 0-6.644-6.644L12 3a7 7 0 0 0-7 7c0 2.16 1.217 4.487 2.798 6.564 1.528 2.008 3.281 3.632 4.202 4.431.92-.799 2.674-2.423 4.202-4.43C17.783 14.487 19 12.159 19 10zM21 10c0 2.834-1.553 5.603-3.206 7.775-1.467 1.928-3.11 3.51-4.139 4.43l-.4.35-.053.044a2 2 0 0 1-1.04.394L12 23a2 2 0 0 1-1.068-.31l-.134-.091-.053-.043c-.955-.825-2.863-2.578-4.539-4.78C4.553 15.602 3 12.833 3 10a9 9 0 1 1 18 0"/><path fill="#c39900" d="M14 10a2 2 0 1 0-4 0 2 2 0 0 0 4 0m2 0a4 4 0 1 1-8 0 4 4 0 0 1 8 0"/></svg>