<svg xmlns="http://www.w3.org/2000/svg" xml:space="preserve" width="512" height="512" viewBox="0 0 512 512"><path fill="#c39900" d="M256 463.19c-36.64 0-72.18-9.55-103.58-27.72l2.94 13.49c.71 3.24-1.35 6.43-4.58 7.14-.43.09-.86.14-1.28.14-2.76 0-5.24-1.92-5.86-4.72l-5.97-27.4c-.71-3.24 1.35-6.43 4.58-7.14l27.4-5.98c3.24-.71 6.43 1.35 7.14 4.58.71 3.24-1.35 6.43-4.58 7.14l-12.96 2.83c29.38 16.81 62.56 25.64 96.76 25.64 39.11 0 76.85-11.52 109.13-33.33 2.74-1.86 6.48-1.13 8.33 1.61 1.85 2.75 1.13 6.48-1.61 8.33-34.28 23.16-74.34 35.39-115.86 35.39M154.17 88.44c1.03 0 2.08-.27 3.04-.83C187.03 70.08 221.2 60.8 256 60.8c29.98 0 59.56 6.91 86.25 20.06l-13 3.9c-3.17.95-4.97 4.3-4.02 7.47a5.99 5.99 0 0 0 5.74 4.27c.57 0 1.15-.08 1.73-.26l26.86-8.07c3.17-.95 4.97-4.3 4.02-7.47l-8.07-26.86c-.95-3.17-4.3-4.97-7.47-4.02s-4.97 4.3-4.02 7.47l3.9 12.97C319.49 56.21 287.96 48.8 256 48.8c-36.94 0-73.21 9.84-104.88 28.47a5.994 5.994 0 0 0-2.13 8.21 6 6 0 0 0 5.18 2.96m211.79 53.38a5.97 5.97 0 0 1-1.55-4.58c2.27-25.74 19.48-47.25 42.51-56.22-7.84-6.74-12.65-16.69-12.65-27.63 0-20.08 16.34-36.42 36.42-36.42s36.42 16.34 36.42 36.42c0 10.94-4.81 20.89-12.65 27.63 23.04 8.96 40.25 30.47 42.51 56.22.15 1.68-.42 3.34-1.55 4.58s-2.74 1.95-4.42 1.95H370.38a6.03 6.03 0 0 1-4.42-1.95m58.11-64.94c2.18-.22 4.39-.34 6.62-.34s4.44.12 6.62.34a24.324 24.324 0 0 0 17.8-23.49c0-13.46-10.95-24.42-24.42-24.42-13.46 0-24.42 10.95-24.42 24.42 0 11.02 7.28 20.54 17.8 23.49m-46.73 54.88h106.7c-5.29-24.7-27.57-43.22-53.35-43.22s-48.06 18.52-53.35 43.22M16.58 141.82a5.97 5.97 0 0 1-1.55-4.58c2.27-25.74 19.48-47.25 42.51-56.22-7.84-6.74-12.65-16.69-12.65-27.63 0-20.08 16.34-36.42 36.42-36.42s36.42 16.34 36.42 36.42c0 10.94-4.81 20.89-12.65 27.63 23.04 8.96 40.25 30.47 42.51 56.22.15 1.68-.42 3.34-1.55 4.58s-2.74 1.95-4.42 1.95H21a6.03 6.03 0 0 1-4.42-1.95m58.11-64.94c2.18-.22 4.39-.34 6.62-.34s4.44.12 6.62.34a24.324 24.324 0 0 0 17.8-23.49c0-13.46-10.95-24.42-24.42-24.42-13.46 0-24.42 10.95-24.42 24.42 0 11.02 7.28 20.54 17.8 23.49m-46.73 54.88h106.7c-5.29-24.7-27.57-43.22-53.35-43.22-25.79 0-48.06 18.52-53.35 43.22M496.98 488.5c.15 1.68-.42 3.34-1.55 4.58s-2.74 1.95-4.42 1.95H370.38c-1.68 0-3.29-.71-4.42-1.95s-1.7-2.9-1.55-4.58c2.27-25.74 19.48-47.25 42.51-56.22-7.84-6.74-12.65-16.69-12.65-27.63 0-20.08 16.34-36.42 36.42-36.42s36.42 16.34 36.42 36.42c0 10.94-4.81 20.89-12.65 27.63 23.04 8.97 40.25 30.48 42.52 56.22m-72.91-60.35c2.18-.22 4.39-.34 6.62-.34s4.44.12 6.62.34a24.324 24.324 0 0 0 17.8-23.49c0-13.46-10.95-24.42-24.42-24.42-13.46 0-24.42 10.95-24.42 24.42 0 11.02 7.28 20.54 17.8 23.49m59.97 54.88c-5.29-24.7-27.57-43.22-53.35-43.22s-48.06 18.52-53.35 43.22zm-336.45 5.47c.15 1.68-.42 3.34-1.55 4.58s-2.74 1.95-4.42 1.95H21c-1.68 0-3.29-.71-4.42-1.95s-1.7-2.9-1.55-4.58c2.27-25.74 19.48-47.25 42.51-56.22-7.84-6.74-12.65-16.69-12.65-27.63 0-20.08 16.34-36.42 36.42-36.42s36.42 16.34 36.42 36.42c0 10.94-4.81 20.89-12.65 27.63 23.04 8.97 40.25 30.48 42.51 56.22m-72.9-60.35c2.18-.22 4.39-.34 6.62-.34s4.44.12 6.62.34a24.324 24.324 0 0 0 17.8-23.49c0-13.46-10.95-24.42-24.42-24.42-13.46 0-24.42 10.95-24.42 24.42 0 11.02 7.28 20.54 17.8 23.49m59.97 54.88c-5.29-24.7-27.57-43.22-53.35-43.22s-48.06 18.52-53.35 43.22zm299.13-170.88c-1.24-3.07-4.73-4.57-7.81-3.33a6.014 6.014 0 0 0-3.33 7.81l10.47 26.02a6 6 0 0 0 5.57 3.76c.75 0 1.5-.14 2.24-.44l26.02-10.46a6.014 6.014 0 0 0 3.33-7.81c-1.24-3.07-4.73-4.57-7.81-3.33l-12.69 5.1c8.9-23.41 13.42-48.07 13.42-73.48 0-30.16-6.34-59.23-18.83-86.43-1.38-3.01-4.95-4.33-7.96-2.95s-4.33 4.95-2.95 7.96c11.77 25.61 17.74 53 17.74 81.42 0 23.72-4.18 46.73-12.4 68.6zM78.25 200.29A6.01 6.01 0 0 0 83.8 204a6 6 0 0 0 2.29-.46c3.06-1.26 4.52-4.77 3.26-7.84l-10.7-25.92a6 6 0 0 0-7.83-3.26l-25.92 10.7c-3.06 1.26-4.52 4.77-3.26 7.84 1.26 3.06 4.77 4.52 7.84 3.26l12.53-5.17c-8.74 23.23-13.18 47.67-13.18 72.85 0 30.35 6.41 59.6 19.07 86.93a5.995 5.995 0 0 0 7.97 2.92 5.984 5.984 0 0 0 2.92-7.96C66.85 312.15 60.81 284.6 60.81 256c0-23.58 4.13-46.48 12.27-68.23zm279.97 82.96-11.95 6.62c.67 4.91-.66 9.93-3.7 13.83-2.97 3.82-7.27 6.26-12.09 6.86-.36.04-.71.08-1.07.1a18.1 18.1 0 0 1-3.79 10.7c-2.97 3.82-7.27 6.26-12.09 6.86-.62.08-1.23.11-1.84.13-.21 3.65-1.49 7.14-3.78 10.08-3.58 4.6-8.95 7.01-14.37 7.01a17.8 17.8 0 0 1-4.35-.53c-.56 2.54-1.66 5-3.37 7.19-3.58 4.6-8.95 7.01-14.37 7.01-3.9 0-7.83-1.25-11.14-3.82l-2.16-1.68c-3.29 2.84-7.44 4.4-11.85 4.4-4.86 0-9.43-1.89-12.85-5.31-2.2-2.2-3.76-4.88-4.6-7.81-1.45.36-2.94.57-4.43.57-4.65 0-9.31-1.77-12.85-5.31a18 18 0 0 1-4.75-8.44c-1.11.21-2.25.32-3.4.32-4.86 0-9.43-1.89-12.85-5.31-3.21-3.21-5.05-7.43-5.27-11.95-4.35-.21-8.64-1.96-11.95-5.27-3.42-3.42-5.31-7.99-5.31-12.85 0-1.39.17-2.75.47-4.07l-14.74-8.16-.11.24a5.99 5.99 0 0 1-5.45 3.49c-.84 0-1.69-.18-2.51-.55l-32.54-15.01c-1.44-.67-2.57-1.88-3.12-3.37s-.49-3.14.18-4.59l35.08-76.08c.67-1.44 1.88-2.57 3.37-3.12s3.14-.49 4.59.18l32.54 15.01c1.34.62 2.34 1.67 2.92 2.91l2.61 1.09c2.38 1 4.5 1.38 7.08 1.3 6.75-.23 12.18-1.91 17.94-3.68 6.48-2 13.18-4.06 21.74-4.06h.22c4.53.17 9.85.88 15.14 2.02 7.26-1.96 14.39-2.99 20.2-3.2h.22c8.56 0 15.26 2.06 21.74 4.06 5.75 1.77 11.19 3.45 17.94 3.68 2.58.09 4.7-.3 7.08-1.3l2.65-1.11c.6-1.27 1.6-2.31 2.89-2.9l32.54-15.01c1.45-.67 3.1-.73 4.59-.18s2.71 1.67 3.37 3.12l35.08 76.08c1.39 3.01.07 6.57-2.94 7.96l-32.54 15.01a6 6 0 0 1-4.59.18 5.97 5.97 0 0 1-3.37-3.12zm-21.56-75.41 30.06 65.18 21.64-9.98-30.06-65.18zm-161.32 1.18-21.64-9.98-30.06 65.18 21.64 9.98zm6.5 92.01c1.16 1.16 2.71 1.79 4.37 1.79s3.21-.64 4.37-1.79l12.91-12.91c1.16-1.16 1.79-2.71 1.79-4.37s-.64-3.21-1.79-4.37c-1.16-1.16-2.71-1.79-4.37-1.79s-3.21.64-4.37 1.79l-12.91 12.91c-1.16 1.16-1.79 2.71-1.79 4.37-.01 1.66.63 3.21 1.79 4.37m21.59 19.01c1.66 0 3.21-.64 4.37-1.79l3.79-3.79 17.38-17.38c1.16-1.16 1.79-2.71 1.79-4.37s-.64-3.21-1.79-4.37c-1.16-1.16-2.71-1.79-4.37-1.79s-3.21.64-4.37 1.79l-21.17 21.17c-1.16 1.16-1.79 2.71-1.79 4.37s.64 3.21 1.79 4.37c1.16 1.16 2.71 1.79 4.37 1.79m25.37 11.64 4.65-4.65 12.72-12.72 4.52-4.52c1.16-1.16 1.79-2.71 1.79-4.37s-.64-3.21-1.79-4.37c-1.16-1.16-2.71-1.79-4.37-1.79s-3.21.64-4.37 1.79l-4.52 4.52-17.38 17.38c-2.41 2.41-2.41 6.33 0 8.73 2.43 2.41 6.34 2.41 8.75 0m21.88 12.56 12.72-12.72c1.16-1.16 1.79-2.71 1.79-4.37s-.64-3.21-1.79-4.37c-1.16-1.16-2.71-1.79-4.37-1.79s-3.21.64-4.37 1.79l-12.72 12.72c-1.16 1.16-1.79 2.71-1.79 4.37s.64 3.21 1.79 4.37c1.16 1.16 2.71 1.79 4.37 1.79s3.21-.63 4.37-1.79m24.59-8.16-.29-.22c-.82 1.5-1.86 2.9-3.1 4.15l-5.11 5.11.92.71c2.69 2.09 6.58 1.6 8.67-1.08 2.08-2.69 1.6-6.58-1.09-8.67m59.11-44.7c-.13-.86-.58-2.47-2.11-3.53l-61.79-42.93c-.08-.05-.15-.11-.22-.16-1.3-.99-3.7-2.05-6.56-2.05-6.65 0-9.42 4.27-13.75 11.81-4.18 7.27-9.38 16.33-21.29 16.33-5.15 0-9.99-2.06-14.02-5.97a6 6 0 0 1-1.82-4.3v-1.86c-.01-11.1-.02-19.12 3.94-31.33 2.13-6.57 6.74-11.94 12.63-16.25-3.23.67-6.32 1.61-9.5 2.59-6.25 1.93-12.72 3.92-21.06 4.21-.37.01-.74.02-1.1.02-3.87 0-7.4-.72-11.03-2.24l-1.04-.44-26.85 58.23 15.99 8.85 11.46-11.46c3.42-3.42 7.99-5.31 12.85-5.31s9.43 1.89 12.85 5.31c1.7 1.7 3.03 3.69 3.93 5.86 2.63-1.44 5.6-2.2 8.7-2.2 4.86 0 9.43 1.89 12.85 5.31 2.23 2.23 3.79 4.94 4.62 7.91 1.38-.33 2.81-.52 4.27-.52 4.86 0 9.43 1.89 12.85 5.31s5.31 7.99 5.31 12.85c0 1.46-.19 2.89-.52 4.27 2.96.83 5.68 2.39 7.91 4.62 2.11 2.11 3.63 4.66 4.49 7.44l13.39 10.41c2.69 2.09 6.58 1.6 8.67-1.08 1-1.29 1.44-2.91 1.24-4.56-.21-1.65-1.03-3.11-2.32-4.11l-22.81-17.73c-2.62-2.03-3.09-5.8-1.05-8.42s5.8-3.09 8.42-1.05l25.57 19.88c1.29 1 2.91 1.44 4.56 1.24 1.65-.21 3.11-1.03 4.11-2.32 2.09-2.69 1.6-6.58-1.08-8.67l-23.11-17.97a5.99 5.99 0 0 1-1.05-8.42 5.99 5.99 0 0 1 8.42-1.05l23.11 17.97 2 1.56c1.29 1 2.91 1.44 4.56 1.24 1.65-.21 3.11-1.03 4.11-2.32a6.6 6.6 0 0 0 1.27-4.97m18.8-19.06-26.85-58.23-1.04.44c-3.97 1.66-7.83 2.36-12.13 2.22-8.34-.29-14.81-2.28-21.06-4.21-5.86-1.81-11.39-3.51-18.1-3.53-13.72.54-41.09 7.53-45.81 22.07-3.27 10.08-3.37 16.47-3.36 26.61 1.06.65 2.36 1.15 3.84 1.15 4.51 0 6.68-2.98 10.88-10.3 4.32-7.53 10.24-17.83 24.16-17.83 4.99 0 9.98 1.61 13.73 4.43L339.12 278c.55.38 1.07.8 1.56 1.24z"/></svg>