<svg xmlns="http://www.w3.org/2000/svg" width="24" height="24" fill="none" class="w-6 h-6" viewBox="0 0 24 24"><path fill="#c39900ff" d="M21.463 6.156a1 1 0 0 1 1.074 1.688l-8.991 5.726-.034.022c-.4.232-.85.369-1.31.4l-.197.005a3 3 0 0 1-1.542-.427l-9-5.726-.083-.06a1 1 0 0 1 1.068-1.679l.09.051 8.97 5.71a1 1 0 0 0 .497.131l.13-.008a1 1 0 0 0 .365-.124z"/><path fill="#c39900ff" d="M21 6a1 1 0 0 0-1-1H4a1 1 0 0 0-1 1v12a1 1 0 0 0 1 1h16a1 1 0 0 0 1-1zm2 12a3 3 0 0 1-3 3H4a3 3 0 0 1-3-3V6a3 3 0 0 1 3-3h16a3 3 0 0 1 3 3z"/></svg>