<svg xmlns="http://www.w3.org/2000/svg" xml:space="preserve" width="512" height="512" viewBox="0 0 512 512"><path fill="#c39900" fill-rule="evenodd" d="M50.852 83.022h29.517a7.6 7.6 0 0 0 7.561-7.561V38.1zM87.915 429.98a6.388 6.388 0 1 1 0-12.776h268.156a6.388 6.388 0 1 1 0 12.776zm168.552-292.869a48.754 48.754 0 1 0 0 68.949 48.756 48.756 0 0 0 0-68.949m-34.474-27.055a61.53 61.53 0 1 1-61.53 61.529 61.53 61.53 0 0 1 61.53-61.529m-55.054 135.093-19.818 34.758 15.615-3.306v.009a6.37 6.37 0 0 1 7.36 4.208l5.1 15.114 20.212-35.432c-5.53.641-10.939 1.68-16.441-1.018-6.47-3.174-8.595-9.239-12.028-14.328zm121.351-6 26.529 46.528a6.379 6.379 0 0 1-6.711 9.647l-23.963-5.073-7.795 23.075a6.374 6.374 0 0 1-11.613 1.228L236 264.151c-11.1 7.135-16.913 7.135-28.012 0l-28.738 50.4a6.374 6.374 0 0 1-11.613-1.228l-7.795-23.075-23.962 5.073a6.378 6.378 0 0 1-6.711-9.647l26.531-46.526c-3.746-1.3-7.32-2.957-10.047-6.355-5.573-6.944-3.484-16.759-5.61-21.094-2.1-4.289-11.241-8.834-13.319-17.7-2.075-8.844 4.021-16.94 4.021-22.419s-6.1-13.575-4.022-22.418c2.078-8.859 11.218-13.408 13.32-17.695 2.126-4.335.037-14.15 5.61-21.094 5.555-6.922 15.549-6.989 19.275-9.98 3.742-3 5.971-12.745 14.043-16.7 8.112-3.978 17.206.208 22.117-.944 4.931-1.157 11.587-9.029 20.909-9.029s15.979 7.873 20.909 9.029c4.911 1.151 14.006-3.033 22.116.944 8.073 3.959 10.3 13.7 14.044 16.7 3.726 2.991 13.719 3.058 19.275 9.98 5.573 6.944 3.484 16.759 5.61 21.094 2.1 4.287 11.241 8.836 13.319 17.695 2.075 8.843-4.021 16.94-4.021 22.418s6.1 13.576 4.021 22.419c-2.078 8.859-11.217 13.408-13.319 17.7-2.126 4.335-.037 14.15-5.61 21.094-2.727 3.4-6.3 5.054-10.047 6.355zm-11.911-9.357a21.6 21.6 0 0 0-5.3 3.051c-5.88 4.719-8.4 13.615-11.648 15.206-3.183 1.561-11.991-1.8-19.422-.053-7.562 1.774-13.787 8.679-18.014 8.679s-10.453-6.9-18.014-8.679c-7.431-1.743-16.24 1.614-19.422.053-3.245-1.591-5.769-10.488-11.648-15.206-5.905-4.738-15.071-5.22-17.329-8.033-2.238-2.789-.754-11.851-4.113-18.7-3.389-6.911-11.447-11.272-12.321-15-.883-3.765 4.371-11.635 4.371-19.525s-5.254-15.761-4.371-19.524c.874-3.727 8.932-8.09 12.321-15 3.359-6.848 1.875-15.91 4.113-18.7 2.255-2.809 11.434-3.3 17.329-8.033s8.4-13.616 11.648-15.206c3.183-1.561 11.99 1.8 19.422.053 7.562-1.774 13.787-8.679 18.014-8.679s10.452 6.905 18.014 8.679c7.431 1.743 16.239-1.614 19.422-.053 3.244 1.59 5.768 10.487 11.648 15.206s15.074 5.224 17.329 8.033c2.238 2.789.754 11.851 4.113 18.7 3.388 6.91 11.447 11.273 12.321 15 .883 3.763-4.371 11.635-4.371 19.524s5.254 15.762 4.371 19.525c-.874 3.727-8.933 8.09-12.321 15-3.359 6.848-1.875 15.91-4.113 18.7-1.621 2.02-8.631 3.484-12.027 4.982zm-27.8 30.7 20.206 35.437 5.105-15.114a6.367 6.367 0 0 1 7.359-4.208v-.009l15.615 3.306-19.818-34.758c-3.433 5.088-5.558 11.154-12.029 14.328-5.5 2.7-10.91 1.659-16.44 1.018zm-53.5-82.934a6.38 6.38 0 1 1 7.885-10.031l13.978 10.992 23.209-26.809a6.368 6.368 0 1 1 9.632 8.334l-26.955 31.136a6.4 6.4 0 0 1-9 1.126l-18.751-14.745zm217.967 88.106a74.4 74.4 0 0 1 0 148.253v61.744A20.38 20.38 0 0 1 392.708 496H51.278a20.38 20.38 0 0 1-20.337-20.335V89.41a6.4 6.4 0 0 1 1.827-4.473l54.96-66.591a6.35 6.35 0 0 1 4.915-2.322V16h300.065a20.38 20.38 0 0 1 20.337 20.337v229.33zm-58.996 21.522a74.14 74.14 0 0 0-21.734 49.71H87.915a6.388 6.388 0 1 0 0 12.776h245a74.1 74.1 0 0 0 9.326 27.378H87.915a6.388 6.388 0 1 0 0 12.776h263.679a74.15 74.15 0 0 0 48.675 24.094v61.744a7.6 7.6 0 0 1-7.561 7.559H51.278a7.6 7.6 0 0 1-7.561-7.559V95.8h36.652a20.38 20.38 0 0 0 20.337-20.336V28.777h292a7.6 7.6 0 0 1 7.561 7.561v229.33a74.1 74.1 0 0 0-46.219 21.518zm9.034 9.032a61.625 61.625 0 1 0 87.151 0 61.626 61.626 0 0 0-87.151 0m3.73 50.09 29.305 23.043a6.4 6.4 0 0 0 9-1.126l42.257-48.81a6.368 6.368 0 0 0-9.632-8.333l-38.514 44.484-24.53-19.289a6.38 6.38 0 1 0-7.885 10.031z"/></svg>