<svg xmlns="http://www.w3.org/2000/svg" version="1.1" xmlns:xlink="http://www.w3.org/1999/xlink" width="512" height="512" x="0" y="0" viewBox="0 0 64 64" style="enable-background:new 0 0 512 512" xml:space="preserve" class=""><g><path d="M27.875 19.68c3.985 3.325 10.464.21 10.36-5.04a6.424 6.424 0 0 0-6.42-6.42c-6.06-.034-8.729 7.839-3.94 11.46z" fill="#c39900" opacity="1" data-original="#000000" class=""></path><path d="M21.404 29.833a4.254 4.254 0 0 0 3.609 1.991h13.606a4.292 4.292 0 0 0 3.858-6.087 11.768 11.768 0 0 0-4.677-5.092 8.552 8.552 0 0 1-5.984 2.489 8.646 8.646 0 0 1-5.994-2.49c-2.84 1.767-6.574 5.642-4.418 9.19zM43.275 17.523c3.99 3.324 10.502.24 10.392-5.04a6.418 6.418 0 1 0-10.392 5.04z" fill="#c39900" opacity="1" data-original="#000000" class=""></path><path d="M45.287 24.399a7.333 7.333 0 0 1 .716 3.215 7.226 7.226 0 0 1-.29 1.991.89.89 0 0 0 .373.073h7.954a4.254 4.254 0 0 0 3.609-1.991c2.16-3.547-1.566-7.432-4.407-9.189-3.362 3.446-8.757 3.074-12.093.041-.941.414.786 1.063 1.193 1.712a14.508 14.508 0 0 1 2.945 4.148zM12.433 17.534a6.42 6.42 0 1 0 3.951-11.47 6.453 6.453 0 0 0-3.95 11.47z" fill="#c39900" opacity="1" data-original="#000000" class=""></path><path d="M9.592 29.678h7.954a1.2 1.2 0 0 0 .383-.073 6.814 6.814 0 0 1-.3-1.991c-.03-2.827 1.752-5.41 3.67-7.363.417-.657 2.118-1.297 1.183-1.711-3.33 3.055-8.79 3.384-12.092-.052-2.84 1.77-6.566 5.649-4.408 9.198a4.254 4.254 0 0 0 3.61 1.992zM59.85 43.269a2.412 2.412 0 0 0-2.94-1.475l-15.586 4.61a5.34 5.34 0 0 1-5.652 3.73l-8.569-.856a1.085 1.085 0 1 1 .217-2.159l8.57.857a3.185 3.185 0 0 0 1.572-6.085l-12.441-5.325a9.645 9.645 0 0 0-7.56.878L4 45.221l5.326 9.23 21.997 3.342a12.452 12.452 0 0 0 7.647-1.27l19.74-10.282a2.418 2.418 0 0 0 1.14-2.972z" fill="#c39900" opacity="1" data-original="#000000" class=""></path></g></svg>