<svg xmlns="http://www.w3.org/2000/svg" xml:space="preserve" width="512" height="512" fill-rule="evenodd" viewBox="0 0 510 510"><path fill="#c39900" d="M84.256 483.864v3.509c0 8.601-7.026 15.627-15.627 15.627H37.72c-8.57 0-15.627-7.026-15.627-15.627V353.88c0-8.601 7.057-15.627 15.627-15.627h26.303c23.513-63.572 77.791-112.223 144.754-127.852-35.751-17.363-60.489-54.073-60.489-96.365C148.288 55.097 196.333 7 255.272 7c58.994 0 107.036 48.098 107.036 107.036 0 42.293-24.739 79.005-60.511 96.367 43.321 10.109 81.327 34.028 109.125 66.862a26 26 0 0 1 3.672 2.299c6.902 5.16 9.438 7.648 12.531 8.773s6.63.85 15.23 1.332h.002c11.228.632 20.327 8.262 22.863 19.189 1.971 8.388 2.316 11.923 3.962 14.774 1.647 2.852 4.536 4.92 10.803 10.815 8.178 7.657 10.266 19.366 5.211 29.403l-.006.011c-3.889 7.691-5.904 10.616-6.477 13.856-.572 3.238.32 6.673 1.349 15.223l.004.029c1.263 10.829-4.289 20.842-14.072 25.432l16.609 38.776a8.001 8.001 0 0 1-8.957 10.987l-22.053-4.511-11.875 19.118a8 8 0 0 1-14.165-1.107l-14.697-34.776c-5.703-1.809-8.43-2.848-11.197-2.848-1.543 0-3.073.323-5.112.923L373.1 490.585a8 8 0 0 1-14.157.616l-11.306-19.457-22.168 3.883a8 8 0 0 1-7.726-3.007 8 8 0 0 1-.911-8.241l20.54-44.26c-.964-.399-2.012-.837-3.152-1.326-9.431-4.011-15.211-12.941-15.132-22.946h-43.853q.057.861.057 1.736c0 8.832-4.402 16.677-11.122 21.452a26.1 26.1 0 0 1 4.833 15.147c0 12.824-9.283 23.581-21.467 25.866a26.1 26.1 0 0 1 2.306 10.748c0 14.453-11.823 26.299-26.299 26.299h-80.425c-26.405 0-42.379-7.378-58.862-13.231M79.464 342.64c2.826 2.726 4.635 6.501 4.783 10.684 5.42-.408 9.132-2.835 11.788-6.672 12.422-17.975 11.316-17.633 27.573-28.254 21.871-14.304 21.041-20.159 29.367-56.348a8.003 8.003 0 0 1 9.705-5.975c18.358 4.508 26.472 18.327 28.285 34.672 1.65 14.867-2.381 31.801-7.569 43.938h55.586c14.474 0 26.315 11.825 26.315 26.299 0 4.924-1.375 9.546-3.76 13.5a26.6 26.6 0 0 1 6.84 5.363h52.415a12.4 12.4 0 0 0-.179-2.136c-.569-3.239-2.578-6.163-6.465-13.85l-.006-.011c-5.055-10.035-2.999-21.738 5.206-29.4 6.272-5.898 9.159-7.963 10.801-10.813 1.644-2.851 1.982-6.386 3.943-14.777l.002-.008c2.564-10.926 11.663-18.551 22.886-19.183h.002c8.6-.482 12.139-.206 15.231-1.332 3.093-1.125 5.628-3.613 12.531-8.773a26 26 0 0 1 4.25-2.588c-34.059-34.513-81.386-55.904-133.722-55.904-80.396 0-148.996 50.529-175.808 121.568m4.792 26.712v97.638c16.842 5.694 32.102 14.105 58.862 14.105h80.425c5.669 0 10.299-4.639 10.299-10.299 0-5.669-4.63-10.3-10.299-10.3h-32.308c-4.416 0-8-3.584-8-8 0-4.415 3.584-8 8-8h51.468c5.671 0 10.3-4.644 10.3-10.314 0-5.661-4.631-10.3-10.3-10.3h-51.468c-4.416 0-8-3.584-8-8 0-4.415 3.584-8 8-8h57.758c5.669 0 10.299-4.63 10.299-10.299s-4.63-10.299-10.299-10.299h-57.758c-4.416 0-8-3.585-8-8 0-4.416 3.584-8 8-8h47.747c5.671 0 10.315-4.638 10.315-10.3 0-5.67-4.644-10.299-10.315-10.299h-69.261a7.998 7.998 0 0 1-6.05-13.234c6.081-7.029 13.293-27.803 11.392-44.94-.776-6.996-3.235-13.424-8.655-17.448-7.935 34.563-10.117 41.077-34.043 56.725l-.003.002c-13.725 8.968-12.679 8.787-23.167 23.962l-.003.005c-5.541 8.006-13.287 13.137-24.936 13.595m171.016-164.28c50.175 0 91.036-40.909 91.036-91.036S305.447 23 255.272 23c-50.126 0-90.984 40.91-90.984 91.036s40.858 91.036 90.984 91.036m196.182 220.02a8 8 0 0 0-.198.162c-2.521 2.116-4.048 5.323-8.757 12.539l-.007.01c-3.364 5.139-8.25 8.689-13.749 10.308l5.535 13.095 6.664-10.729a8 8 0 0 1 8.399-3.616l12.536 2.564zm-76.474 23.886c-7.256-.744-13.895-4.698-18.135-11.175l-.002-.003c-2.743-4.194-4.409-7.034-5.817-9.094l-13.235 28.519 12.58-2.204a8 8 0 0 1 8.297 3.861l6.443 11.088zm30.031-156.601c-3.22-2.409-7.464-2.409-10.684 0l-.002.001c-8.999 6.728-12.607 9.527-16.639 10.994s-8.593 1.643-19.807 2.272c-4.021.226-7.289 2.948-8.208 6.863-2.556 10.939-3.517 15.402-5.659 19.12s-5.525 6.786-13.71 14.486l-.027.025c-2.936 2.737-3.65 6.924-1.845 10.512 5.071 10.026 7.199 14.065 7.942 18.29s.118 8.746-1.21 19.902l-.001.007c-.478 3.98 1.641 7.658 5.329 9.224l.027.012c10.331 4.429 14.558 6.154 17.844 8.916 3.285 2.76 5.716 6.628 11.87 16.038 2.195 3.351 6.184 4.813 10.04 3.642l.011-.003c10.745-3.243 15.087-4.638 19.377-4.638s8.637 1.395 19.394 4.637l.021.007c3.84 1.169 7.838-.295 10.031-3.643 6.142-9.413 8.575-13.282 11.865-16.043 3.289-2.761 7.522-4.485 17.851-8.913l.026-.012c3.693-1.567 5.788-5.256 5.327-9.241-1.342-11.15-1.963-15.673-1.217-19.898.747-4.224 2.882-8.261 7.95-18.285 1.808-3.592 1.069-7.783-1.858-10.523l-.013-.013c-8.183-7.697-11.565-10.765-13.71-14.481-2.146-3.718-3.113-8.181-5.684-19.122l-.006-.027c-.903-3.904-4.168-6.613-8.178-6.839-11.214-.629-15.774-.804-19.807-2.272-4.031-1.467-7.639-4.266-16.639-10.994zm-5.355 124.789c-30.478 0-55.35-24.872-55.35-55.35s24.872-55.35 55.35-55.35c30.507 0 55.35 24.872 55.35 55.35s-24.843 55.35-55.35 55.35m0-16c21.689 0 39.35-17.683 39.35-39.35s-17.661-39.35-39.35-39.35c-21.667 0-39.35 17.682-39.35 39.35 0 21.667 17.683 39.35 39.35 39.35m-22.259-32.688c-3.125-3.12-3.129-8.189-.01-11.314s8.189-3.129 11.314-.009l4.305 4.297 17.909-16.238a8.005 8.005 0 0 1 11.301.553 8.004 8.004 0 0 1-.554 11.3l-23.548 21.351a8 8 0 0 1-11.026-.265zM38.093 354.253V487h30.163V354.253z"/></svg>