<svg xmlns="http://www.w3.org/2000/svg" version="1.1" xmlns:xlink="http://www.w3.org/1999/xlink" width="512" height="512" x="0" y="0" viewBox="0 0 512 512" style="enable-background:new 0 0 512 512" xml:space="preserve" class=""><g><path d="M454.977 94.54c0 34.468-27.942 62.41-62.407 62.41-34.468 0-62.41-27.942-62.41-62.41 0-34.466 27.942-62.407 62.41-62.407 34.465 0 62.407 27.941 62.407 62.406zM284.55 175.379l-29.62-44.418V55.17C254.93 24.93 230.54 0 199.77 0H55.172C24.559 0 0 24.781 0 55.172v88.36c0 30.32 24.469 55.167 55.172 55.167H272.07c11.95 0 19.121-13.36 12.48-23.32zm-157.503-32.91h-47.36c-8.078 0-15.027-6.215-15.402-14.285-.394-8.618 6.457-15.715 14.985-15.715h48.203c8.511 0 15.379 7.097 14.98 15.71-.371 8.075-7.324 14.29-15.406 14.29zm48.625-56.239H79.695c-8.074 0-15.02-6.199-15.406-14.261-.414-8.617 6.445-15.739 14.98-15.739h95.977c8.082 0 15.035 6.215 15.406 14.29.399 8.613-6.468 15.71-14.98 15.71zM116.484 372.152C51.88 372.375 0 425.711 0 490.316v3.29C0 503.765 8.234 512 18.395 512h197.003c10.16 0 18.395-8.234 18.395-18.395v-4.558c0-64.7-52.559-117.121-117.309-116.895zm0 0" fill="#c39900" opacity="1" data-original="#000000" class=""></path><path d="M190.508 298.543c0 40.652-32.953 73.61-73.61 73.61-40.652 0-73.609-32.958-73.609-73.61s32.957-73.61 73.61-73.61c40.656 0 73.609 32.958 73.609 73.61zM487.23 241H297.898c5.582-47.328 45.832-84.05 94.672-84.05 48.828 0 89.078 36.722 94.66 84.05zM497 272c8.285 0 15 6.715 15 15v177.871c0 8.52-7.11 15.39-15.73 14.98-8.06-.382-14.27-7.331-14.27-15.41v-16.71H257.871c-10.082-34.32-32.371-63.481-61.84-82.391 15.258-18.05 24.48-41.371 24.48-66.8 0-9.169-1.202-18.06-3.452-26.54zm0 0" fill="#c39900" opacity="1" data-original="#000000" class=""></path></g></svg>