<svg xmlns="http://www.w3.org/2000/svg" width="24" height="24" fill="none" class="w-6 h-6" viewBox="0 0 24 24"><path fill="#fff" d="M13.575 3.588a5.28 5.28 0 0 1 5.736.563q.131-.029.301-.086c.278-.094.577-.224.86-.363a12 12 0 0 0 .925-.506l.055-.033.012-.008h.002a1.001 1.001 0 0 1 1.52 1.009l-.038.152v.004l-.004.008-.008.024q-.009.03-.028.08-.037.106-.108.285c-.094.236-.233.564-.415.936-.301.613-.745 1.388-1.33 2.073C22.345 18.15 11.018 25.69 1.888 20.113l-.44-.28a1 1 0 0 1 .597-1.832 7.9 7.9 0 0 0 3.867-.8c-4.361-2.407-6.28-8.1-3.79-12.679l.065-.104a1.002 1.002 0 0 1 1.577-.064c1.768 2.09 4.4 3.404 7.128 3.619.01-1.993 1.132-3.577 2.683-4.385m4.742 2.343c-1.17-1.092-2.68-1.16-3.817-.569-1.115.581-1.872 1.796-1.522 3.428a1 1 0 0 1-.949 1.21c-3.175.093-6.344-1.093-8.695-3.222-1.16 3.78 1.01 8.081 4.953 9.264a1 1 0 0 1 .467 1.615l-.096.096a9 9 0 0 1-3.214 1.787c7.211 2.204 14.859-3.92 13.569-11.982a1 1 0 0 1 .28-.865c.182-.181.35-.388.51-.604A3.4 3.4 0 0 1 19 6.2c-.253 0-.497-.097-.683-.27"/></svg>