<svg xmlns="http://www.w3.org/2000/svg" version="1.1" xmlns:xlink="http://www.w3.org/1999/xlink" width="512" height="512" x="0" y="0" viewBox="0 0 52 52" style="enable-background:new 0 0 512 512" xml:space="preserve" class=""><g><path d="M43.089 23.987v-4.439a.324.324 0 0 0-.32-.33h-1.745v5.09h1.745c.175 0 .32-.145.32-.32z" fill="#c39900" opacity="1" data-original="#000000" class=""></path><path d="M45.33 2h-5.028c.454.609.722 1.373.722 2.199v2.333h1.745c1.032 0 1.868.836 1.868 1.868v4.439a1.868 1.868 0 0 1-1.868 1.868h-1.745v2.963h1.745c1.032 0 1.868.846 1.868 1.878v4.44a1.868 1.868 0 0 1-1.868 1.867h-1.745v2.963h1.745c1.032 0 1.868.836 1.868 1.868v4.44a1.877 1.877 0 0 1-1.868 1.878h-1.745V47.8A3.67 3.67 0 0 1 40.302 50h5.027a2.207 2.207 0 0 0 2.199-2.199V4.2A2.2 2.2 0 0 0 45.329 2z" fill="#c39900" opacity="1" data-original="#000000" class=""></path><path d="M43.089 12.839V8.4a.322.322 0 0 0-.32-.32h-1.745v5.079h1.745c.175 0 .32-.145.32-.32zM43.089 35.125v-4.439a.322.322 0 0 0-.32-.32h-1.745v5.09h1.745c.175 0 .32-.145.32-.33zM37.277 2H14.764v48h22.513a2.2 2.2 0 0 0 2.199-2.199V4.2c0-1.218-.98-2.199-2.199-2.199zm-10.54 11.159a3.306 3.306 0 0 1 3.304 3.303 3.297 3.297 0 0 1-3.303 3.293 3.295 3.295 0 0 1-3.293-3.293 3.304 3.304 0 0 1 3.293-3.303zm0 7.38c3.862 0 7.051 2.911 7.474 6.658a.778.778 0 0 1-.784.857H20.049a.778.778 0 0 1-.785-.857c.434-3.747 3.613-6.658 7.474-6.658zm7.733 21.224H19.017a.773.773 0 0 1-.775-.775c0-.433.341-.774.775-.774H34.47a.773.773 0 1 1 0 1.549zm0-4.336H19.017a.773.773 0 0 1-.775-.774c0-.434.341-.774.775-.774H34.47a.773.773 0 1 1 0 1.548zM4.472 4.199V47.8A2.2 2.2 0 0 0 6.671 50h6.544V2H6.671c-1.218 0-2.199.98-2.199 2.199z" fill="#c39900" opacity="1" data-original="#000000" class=""></path></g></svg>