<svg xmlns="http://www.w3.org/2000/svg" version="1.1" xmlns:xlink="http://www.w3.org/1999/xlink" width="512" height="512" x="0" y="0" viewBox="0 0 66 66" style="enable-background:new 0 0 512 512" xml:space="preserve" class=""><g><path d="M47.1 52.6v13.2c0 .5-.4 1-1 1h-8.7c-.6 0-1-.5-1-1V52.6c0-.5.4-1 1-1h8.7c.6 0 1 .4 1 1zM32.3 57v8.7c0 .5-.4 1-1 1h-8.7c-.6 0-1-.5-1-1V57c0-.6.4-1 1-1h8.7c.5 0 1 .5 1 1zM17.4 61.4v4.3c0 .5-.4 1-1 1H7.7c-.6 0-1-.5-1-1v-4.3c0-.6.4-1 1-1h8.7c.6 0 1 .4 1 1zM61.9 46v19.7c0 .5-.4 1-1 1h-8.7c-.6 0-1-.5-1-1V46c0-.6.4-1 1-1h8.7c.6 0 1 .4 1 1zM61.6 33.2l-4.6 8c-.2.3-.6.5-.9.5-.4 0-.7-.3-.9-.6l-.6-1.5L8 58.3c-.1 0-.2.1-.4.1-.1 0-.3 0-.4-.1-.2-.1-.4-.3-.5-.5l-2.3-5.7c-.2-.5 0-1.1.6-1.3L51.6 32l-.6-1.5c-.1-.3-.1-.8.2-1 .2-.3.7-.4 1-.3l8.9 2.5c.3.1.5.3.7.6 0 .3 0 .6-.2.9zM33.5 8c-.2 1.1-.9 2.1-1.9 2.7-.7.4-1.5.7-2.3.7-.3 0-.6 0-1-.1-1.1-.3-2.1-.9-2.7-1.9s-.8-2.1-.5-3.3C25.3 5 26 4 27 3.4s2.1-.8 3.3-.5c1.1.2 2.1.9 2.7 1.9.5.9.7 2.1.5 3.2z" fill="#c39000" opacity="1" data-original="#000000" class=""></path><path d="M41.9 20.6v-.1c-.2-1.3-1.5-2.3-2.9-2.1h-2.1c-.6 0-1.4-.3-1.8-.8l-2.2-2.4c-1-1-2.2-1.8-3.6-2.1l-3.4-.8c-1.1-.2-2.2-.2-3.3 0l-3.8 1c-1 .3-1.9.9-2.4 1.9l-2.2 3.9h-.4c-.4.1-.8.4-1 .8l-.9 1.5-.7-.4c-1.4-.8-3.2-.4-4 1l-.8 1-1.9 3.2c-.8 1.4-.4 3.2 1 4l7.4 4.4c.5.3 1 .4 1.5.4 1 0 2-.5 2.5-1.4l2.6-4.3c.8-1.4.4-3.2-1-4l-.6-.3.9-1.4c.3-.6.3-1.3 0-1.8.1-.1.2-.3.2-.4l1.1-2.2c.2-.5.7-.9 1.2-1l.9-.2-1.6 7.9c-.1.4 0 .9.1 1.3l.6 6.3-4.3 6.4c-.4.6-.5 1.3-.4 2s.6 1.3 1.2 1.7c.3.2.7.3 1.1.4h.3c.9 0 1.7-.4 2.2-1.2l4.7-7.1c.4-.6.5-1.2.5-1.9l-.3-3.1 2.1.8-.9 5.2c-.4 1.3.3 2.6 1.6 3.1.3.1.6.2.9.2.9 0 1.8-.5 2.2-1.3.1-.1.1-.2.1-.3l1.3-7.3c.3-1.5-.4-3-1.7-3.8l-2.5-1.4 1.1-5.2 1.2 1.1c1.6 1.4 3.6 2.1 5.7 2l2.3-.1c.7-.1 1.3-.4 1.7-1 .5-.7.6-1.4.5-2.1zm-27.7.7c.3.5.7 1 1.3 1.3.4.2.9.3 1.3.2l-.6 1.2-2.6-1.6zm3.6 7.1-.1.2-9-5.4.1-.2c.3-.5.8-.6 1.3-.3l7.4 4.4c.4.2.5.8.3 1.3z" fill="#c39000" opacity="1" data-original="#000000" class=""></path></g></svg>