<svg xmlns="http://www.w3.org/2000/svg" version="1.1" xmlns:xlink="http://www.w3.org/1999/xlink" width="512" height="512" x="0" y="0" viewBox="0 0 510 510" style="enable-background:new 0 0 512 512" xml:space="preserve" fill-rule="evenodd" class=""><g><path d="M255.272 210.572c-54.532 0-98.984-44.504-98.984-99.036 0-54.533 44.452-99.036 98.984-99.036 54.585 0 99.036 44.503 99.036 99.036 0 54.532-44.451 99.036-99.036 99.036zm124.769 248.944-14.181 30.166-14.109-24.281-27.663 4.846 17.344-37.373a8.894 8.894 0 0 1 1.49 1.002c2.14 1.797 3.217 4.673 7.226 10.803l.004.007c6.742 10.296 18.07 15.768 29.889 14.83zm43.798.042c10.111-.608 19.479-5.912 25.346-14.872l.014-.022c3.992-6.117 5.063-8.989 7.2-10.783 1.27-1.065 2.848-1.696 5.324-2.634l13.526 31.58-27.511-5.629-14.816 23.852zM409.803 288.47c15.901 11.888 12.291 10.576 32.105 11.686 7.622.429 13.806 5.604 15.522 13.024 4.543 19.334 2.625 16.002 17.087 29.606 5.553 5.2 6.966 13.15 3.534 19.965-8.96 17.718-8.304 13.932-5.931 33.645.883 7.572-3.13 14.563-10.147 17.541-18.248 7.825-15.32 5.351-26.174 21.984-4.164 6.36-11.761 9.137-19.056 6.916-19.005-5.73-15.169-5.73-34.149 0-7.319 2.221-14.891-.556-19.056-6.916-10.878-16.633-7.925-14.159-26.174-21.984-7.016-2.978-11.055-9.969-10.146-17.541 2.347-19.713 3.029-15.927-5.931-33.645-3.433-6.815-2.045-14.765 3.533-19.965 14.463-13.604 12.544-10.272 17.062-29.606 1.742-7.42 7.926-12.595 15.548-13.024 19.813-1.11 16.204.202 32.105-11.686 6.108-4.568 14.16-4.568 20.268 0zm-10.147 123.196c26.098 0 47.35-21.277 47.35-47.35s-21.252-47.35-47.35-47.35c-26.073 0-47.35 21.277-47.35 47.35s21.277 47.35 47.35 47.35zm-22.259-40.688c-3.125-3.12-3.129-8.189-.01-11.314s8.189-3.129 11.314-.009l4.305 4.297 17.909-16.238a8.005 8.005 0 0 1 11.301.553 8.004 8.004 0 0 1-.554 11.3l-23.548 21.351a8 8 0 0 1-11.026-.265zM37.72 348.753h30.909c4.198 0 7.627 3.429 7.627 7.627v133.493c0 4.198-3.429 7.627-7.627 7.627H37.72c-4.183 0-7.627-3.429-7.627-7.627V356.38c0-4.198 3.444-7.627 7.627-7.627zm54.536 21.916c7.369-2.008 12.774-6.399 16.936-12.412l.003-.005c10.488-15.175 9.442-14.994 23.167-23.962l.003-.002c23.926-15.648 26.108-22.162 34.043-56.725 5.42 4.024 7.879 10.452 8.655 17.448 1.901 17.137-5.311 37.911-11.392 44.94a8 8 0 0 0 6.05 13.234h69.261c5.671 0 10.315 4.629 10.315 10.299 0 5.662-4.644 10.3-10.315 10.3h-47.747c-4.416 0-8 3.584-8 8 0 4.415 3.584 8 8 8h57.758c5.669 0 10.299 4.63 10.299 10.299s-4.63 10.299-10.299 10.299h-57.758c-4.416 0-8 3.585-8 8 0 4.416 3.584 8 8 8h51.468c5.669 0 10.3 4.639 10.3 10.3 0 5.67-4.629 10.314-10.3 10.314h-51.468c-4.416 0-8 3.585-8 8 0 4.416 3.584 8 8 8h32.308c5.669 0 10.299 4.631 10.299 10.3 0 5.66-4.63 10.299-10.299 10.299h-80.425c-21.682 0-35.651-5.624-49.184-10.668-.56-.209-1.119-.416-1.678-.623zm-.211-17.449c-1.246-9.237-7.874-16.818-16.602-19.462 30.081-69.53 99.276-118.186 179.829-118.186 52.687 0 100.506 20.793 135.702 54.619-3.867 1.086-7.601 2.908-11.021 5.466-5.857 4.379-7.852 6.708-10.477 7.663-2.623.955-5.646.453-12.941.861l-.004.001c-14.824.834-26.838 10.911-30.225 25.342l-.004.015c-1.663 7.119-1.69 10.184-3.084 12.603-1.392 2.416-4.027 3.976-9.339 8.97-10.834 10.124-13.559 25.581-6.882 38.837l.012.022c3.295 6.517 5.243 8.88 5.725 11.625.379 2.154-.166 4.394-.835 8.751h-38.482a26.536 26.536 0 0 0-11.88-13.363 26.067 26.067 0 0 0 3.76-13.5c0-14.474-11.841-26.299-26.315-26.299h-55.586c5.188-12.137 9.219-29.071 7.569-43.938-1.813-16.345-9.927-30.164-28.285-34.672a8 8 0 0 0-9.705 5.975c-8.326 36.189-7.496 42.044-29.367 56.348-16.257 10.621-15.151 10.279-27.573 28.254-1.124 1.624-2.438 2.996-3.99 4.068z" fill="#c39900" opacity="1" data-original="#000000" class=""></path></g></svg>