<svg xmlns="http://www.w3.org/2000/svg" viewBox="0 0 150 150"><g fill="#0e132c"><path d="M119.84 48.43c-1.4-.68-2.68-.59-4.21.43-.8-8.1-3.54-15.52-8.52-21.77-.59-.72-1.21-1.3-1.63-2.2 2.2-.32 4.27-1.39 4.42-3.68.1-1.74-1.57-3.6-3.29-3.66-2.34-.09-3.89 1.92-3.96 4.16-.86.02-1.28-.53-1.88-1.02-6.24-5.2-13.86-8.1-22.06-8.84 1.32-2.37.82-4.5-1.13-5.62-1.86-1.07-4.19-.32-5.11 1.74-.54 1.24-.5 2.37.33 3.83-8.64.79-16.43 4.14-23.21 9.95-.65-2.11-1.57-3.73-3.6-4.11-1.28-.22-2.37.59-2.99 1.28-.96 1.04-1.15 2.43-.65 3.64.61 1.43 1.97 2.02 3.54 2.35.02.68-.5 1.09-.96 1.64-5.21 6.31-8 14.06-8.48 22.33-1.74-1.11-3.64-1.43-5.15-.24-1.63 1.3-1.65 4.07-.15 5.48 1.51 1.37 3.33.96 5.23-.15.86 8.88 3.6 17.28 9.57 23.73-.38.28-.84.41-1.42.53-1.36.26-2.32 1.79-2.24 3.24.08 2.24 2.37 4.01 4.5 3.66 1.82-.3 2.47-1.79 2.85-3.62 6.15 5.62 15.05 9.03 22.9 9.82-1.03 2.59.25 5.35 2.7 6.05 1.36.37 3.01-.55 3.7-1.72.8-1.39.57-2.77.1-4.35 6.97-.26 16.33-4.14 21.66-8.69.46-.41.94-.79 1.4-1.04.44 1.5.73 2.55 1.84 3.13 1.07.59 2.11.64 3.35.22 1.55-.55 2.51-2.15 2.24-3.7-.75-4.09-5.04-2.15-3.22-4.26 5.48-6.35 8.41-14.34 9.02-22.75 1.32-.15 2.57 1.96 4.96.51.96-.57 1.57-1.7 1.59-3.03.02-1.5-.92-2.7-2.05-3.26v-.02ZM78.86 17.85c7.14.72 12.77 3.24 18.36 7.8l-3.79 3.96L83.4 39.84c-.92.94-2.43-.96-4.88-1.24l.33-20.75zm-5.61.24v20.42c-1.32.53-2.51 1.07-4.02 1.83L54.64 25.68c5.38-4.48 11.87-7.25 18.61-7.6ZM50.31 29.47l13.42 13.68c.44.45.92.94 1.23 1.28-.82 1.53-1.26 2.55-1.76 4.33H42.67c.31-6.69 3.22-14.3 7.64-19.29m-7.4 26.08-.15-1.45 5.21-.06 2.93.06 12.58.04c.46 1.35.82 2.33 1.51 3.75l-7.91 8.16-6.89 7.07c-4.5-4.94-6.61-11.02-7.28-17.56Zm30.34 29.52c-5.32 0-10.26-1.72-14.65-4.52-1.65-1.07-3.2-2.07-4.56-3.6l13.69-13.87c.27-.28.61-.68.84-.79s.77.3.96.59l3.73 1.7v20.48h-.01Zm2.64-26.28c-4.02 0-7.3-3.31-7.3-7.38s3.29-7.36 7.3-7.36 7.31 3.28 7.31 7.36-3.29 7.38-7.31 7.38m2.68 26.17-.1-14.89.1-5.4 4.33-2.26 7.01 6.9 7.83 7.88c-5.88 4.52-11.68 7.69-19.17 7.77m23.15-12.02c-.92-.74-1.53-1.48-2.34-2.3l-6.76-6.77-5.65-5.71 1.78-4.03 19.21-.04c.46 0 .88-.02 1.21.11-.98 7.73-2.18 12.74-7.45 18.75ZM88.76 48.76c-.57-1.68-1.13-2.94-2.07-4.5l14.67-14.85c4.58 4.79 7.87 12.58 8.04 19.37z"/><path d="M131.41 119.75c-2.45-4.96-4.5-9.84-6.53-15.06-1.19-.13-2.28-.17-3.47-.13l8.6 20.69c-7.03-.61-13.81-.02-20.78 1.28-8.79 1.64-16.93 5.01-24.74 9.27l-7.16 4.44c1.65-2.48 3.81-4.11 6.11-5.79 8.37-6.14 21.85-11.15 32.1-12.1l4.4-.41c2.28-.19 4.37-.13 6.76.22-2.22-4.42-4.25-8.27-6.01-12.47l-2.97-7.07c-.8-1.92-1.61-4.39-3.54-5.58-7.07-1.11-18.21 1.92-24.99 4.71-5.09 2.09-9.44 5.14-13.27 9.19-8-7.95-16.14-10.84-26.83-13-3.75-.74-7.24-1.41-11.09-1.02-.77.96-1.86 2.05-2.47 3.07l-5.48 12.72-4.33 9.91 2.16-.43c9.44-.66 18.75 1.48 27.48 5.16 5.57 2.35 10.72 5.12 15.41 8.95 1.15 1.43 2.8 2.22 3.66 4.22-5.63-4.11-11.47-7.2-17.83-9.84-2.89-1.2-5.57-2.15-8.6-2.92-9.84-2.48-15.49-3.03-25.95-2.57l2.93-6.75 5.9-14.09c-1.3-.04-2.34.11-3.35.39l-5.38 12.34c-1.93 4.42-4.23 8.31-6.07 12.98 1.13.11 2.24-.06 3.47-.17 4.29-.39 5.88-.24 10.17.04 13.37.89 26.67 4.96 38.44 11.47.69.39.92 1.22 1.44 1.77 1.59 1.64 4.21 2.62 6.55 2.59 2.28-.02 4.86-.98 6.34-2.62.59-.63.52-1.37 1.51-1.9 10.8-5.77 22.29-9.76 34.42-10.82l5.69-.53c2.85-.24 5.8-.26 8.64.02l3.33.32c-1.53-3.83-3.01-7.03-4.69-10.47v-.03Zm-53.91 2.69.19-8.84c3.7-4.26 7.6-7.12 12.89-9.27 7.3-2.96 14.86-4.35 22.81-4.24l3.79 9.47 3.73 8.27c-16.05.79-30.86 5.75-43.44 16.56-.04-4.16-.04-8.01.04-11.95Zm-3.3-3.83-.08 15.56c-7.05-6.09-15.03-10.27-23.82-12.91-2.74-.81-5.19-1.55-8-2.02-3.62-.64-7.12-1.13-11.01-1.02l2.34-5.37 5.36-12.7c7.87-.26 16.72 1.59 23.84 4.83 4.88 2.22 7.79 4.92 11.47 8.75.42 1.48-.1 3.2-.1 4.88"/></g></svg>