<svg xmlns="http://www.w3.org/2000/svg" viewBox="0 0 150 150"><path fill="#0e132c" d="M0 0h150v150H0z"/><g fill="#fff"><path d="m27.14 88.58-2.74.59.75-.54c.28-.2.3-.6.22-1.06l-2.29.5c-.03.68.06 1.32.45 1.87.34.48.95.55 1.55.8l-1.86.15-1-4.84.32.47c.08.13.48.18.64.14l4.33-.96c.22-.05.26-.73.12-.91s-.42-.42-.69-.51l-5.36-1.64 5.08-2.69c.23-.12.4-.4.58-.7l.22 2.52-.22-.37c-.05-.08-.3-.14-.39-.09l-3.18 1.66 3.15.94c.13.04.51 0 .57-.11l.25-.55c.08.59.12 1.21.25 1.81l.95 4.46c-.55.14-1.07.25-1.61.31.43-.41 1-.65 1.01-1.25 0-.52-.14-1.06-.27-1.59l-2.25.49c0 .81.5.89 1.44 1.09h-.02Zm2.75 4.44c-.3-1.09-.68-2.14-1.07-3.17l-.09.66c-.02.13-.31.27-.47.32l-3.96 1.34c-.22.07-.51-.09-.8-.24.31 1.01.63 2.01 1.03 3.02.59 1.47 2.07 1.96 3.45 1.51 1.46-.48 2.35-1.87 1.91-3.44m-1.16 1.42c-.98.66-2.89 1.33-3.8.41-.29-.3-.54-.84-.39-1.34l4.66-1.59c.56.9.39 1.94-.47 2.51Zm3.61 6.21c-1.33-.15-2.57.57-3.34 1.54-.54.68-.44 1.61.18 2.22.36.35.87.51 1.4.76-.29.16-.68.1-1-.08-1.22-.7-1.89-2.23-1.45-3.62.47-1.46 1.99-2.21 3.44-1.95s2.44 1.42 2.51 3.02c0 .21.4.33.74.43l-1.8.97c.45-.72.84-1.15.67-1.97-.11-.52-.52-1.22-1.34-1.31Zm-5.57-.1-1.17-2.67.4.39c.08.08.4.14.52.09l3.91-1.74c.14-.06.38-.26.39-.39l.04-.63 1.12 2.54c-.39-.25-.61-.48-1-.31l-4.04 1.81c-.11.19-.13.57-.18.91Zm32.36 28.22-4.63-1.7.67-.09c.13-.02.26-.23.32-.39.52-1.43 1.05-2.77 1.5-4.24.09-.39-1.04-.75-1.23-.4l-2.16 4.01c-.15.27.06.56.28.93l-2.5-1.3.94-.06 2.2-4.24-4.64 3.6.29-5.8-2.02 3.79c-.15.28-.07.59.07 1.03l-1.37-.69c.59-.09.87-.12 1.08-.53l1.86-3.55c.2-.39 0-.61-.31-1l1.98 1-.22 4.28 3.39-2.59c.63.32 1.19.63 1.78.85l4.54 1.65-.61 1.61c-.14-.64 0-1.25-.52-1.6-.44-.29-.97-.46-1.5-.61l-.78 2.19c.37.14.83.21 1.07-.06l.67-.73-1.05 2.81-.06-1.13c0-.24-.45-.51-.77-.57-.27.71-.49 1.33-.73 2.06-.06.2.46.43.65.52.94.42 1.78.2 2.57-.66-.23.59-.43.96-.78 1.64zm20.33 1.82c.02.18.52.34.71.42l-2.68.27c.33-.24.63-.4.59-.75l-.42-4.31c-.01-.15-.16-.38-.29-.42l-.64-.17c.99-.15 1.92-.24 2.91-.28l-.51.33c-.1.07-.15.41-.14.54l.19 1.68 2.39-.23-.15-1.75c-.01-.12-.11-.4-.22-.45l-.61-.23c1.8-.18 3.35-.43 5.04-.82l-.29.57 1.9 2.17.68-2.41c.04-.13-.08-.5-.19-.53l-.54-.15 1.68-.38c-.21.26-.48.5-.54.73-.29 1.03-.57 1.93-.77 2.98-.11.58.29 1.35.39 1.97l.93.19-3.02.67c.2-.18.68-.43.66-.66-.03-.43-.1-1.24-.32-1.56-.72-.94-1.42-1.7-2.19-2.59-.13-.15-.42-.3-.59-.34-.19-.05-.71.2-.69.39l.39 4.49c.03.39.37.51.76.68l-2.71.25c.37-.2.67-.4.63-.76l-.23-2.12-2.41.26.25 2.29zM39.84 43.84c-.32.04-.69.11-.9.08l-2.39-.36c.3-.81.22-1.55-.47-2.01-1.62-1.12-3.18 1.75-4.2 2.83.47-.16.74-.23 1.06.04l3.24 2.77c.17.15.07.59.07.88l1.77-2.11c-.43.2-.75.39-1.06.13-.57-.5-.98-.78-1.46-1.4l3.26.45 1.08-1.31Zm-4.58.8-1.82-1.55c.1-.29.48-.65.76-.74.73-.24 1.76.64 1.67 1.35-.04.33-.32.74-.61.93Zm26.93-16.21c0 1.7-1.38 3.08-3.08 3.08s-3.08-1.38-3.08-3.08 1.38-3.08 3.08-3.08 3.08 1.38 3.08 3.08m-2.48-2.15c-.4-.45-.98-.61-1.55-.39-1.4.54-.89 3.26.36 4.67.39.44.95.61 1.5.42 1.47-.52.92-3.3-.31-4.7"/><path d="M76.93 127.3c.17-1.19-1.12-1.78-1.77-1.79l-3.38-.06c.2.12.77.32.76.53l-.07 4.45c-.01.44-.36.55-.79.73l2.86.08c-.41-.24-.77-.34-.75-.77l.06-1.86c1.18.1 2.9-.05 3.08-1.31m-3.03-1.48c.34-.08.89-.03 1.19.17.59.36.54 1.79-.04 2.13-.34.19-.93.24-1.2.05l.05-2.34ZM33.59 50.39c.1.07.4.19.5.14.12-.07.29-.26.39-.39.76-.89.67-1.72.04-2.77.54.41.93.76 1.39 1.21l-2.53 3.74c-.09-.21-.19-.57-.33-.67l-3.57-2.4c-.43-.29-.62 0-1.11.23l2.67-4.01 1.39.94c-.98-.15-1.59-.14-2.05.59l-.54.87 1.93 1.28c.19-.22.4-.65.28-.86l-.49-.92c.84.51 1.54.98 2.25 1.52-.82-.14-1.41-.34-1.75.46l1.52 1.03h.01ZM63.3 30.06c.26-.24.67-.48.6-.84l-.81-4.14c-.05-.27-.69-.45-.95-.61l1.87-.39 3.92 3-.5-2.8c-.08-.43-.48-.5-.95-.67l1.78-.32c-.37.32-.62.55-.55.94l.93 5.01-5.17-3.92.69 3.74c.03.16.13.43.26.45l.75.16c-.56.16-1.13.28-1.87.39M40.05 42.77l-2.92-3.18c-.16-.17-.69-.06-1.07-.08l1.35-1.26 4.89.5-1.99-2.21c-.2-.22-.71-.03-1.06.05l1.32-1.21c-.05.32-.19.77-.03.94l3.5 3.87-6.45-.6 2.59 2.86c.32.35.68.13 1.16-.05-.43.47-.92.92-1.42 1.31.07-.26.34-.74.15-.94zM27.8 62.31l-3.9-1.47-.9.46.62-1.72 4.63-1.77-2.7-1.05c-.43-.17-.66.23-1.02.53l.64-1.71c.1.37.15.77.45.89l4.81 1.87-6.04 2.35 3.52 1.37c.42.16.65-.06 1.06-.37l-.6 1.66c-.11-.56-.13-.87-.57-1.04m62.88 66.94-.66-2.05c.54.49.92.97 1.38 1.09.77.2 1.38.05 1.94-.35.28-.2.42-.65.33-.95-.07-.25-.47-.6-.78-.62l-2.13-.13c-.69-.04-1.25-.49-1.43-1.02-.23-.67-.05-1.33.48-1.8 1.12-.99 2.52-.42 2.64-.67l.26-.53.56 1.84c-.88-.99-2.19-1.19-3-.51-.22.18-.33.64-.28.86s.43.5.7.51l2.27.13c.68.04 1.26.62 1.44 1.13.23.67 0 1.35-.54 1.8-1.61 1.36-2.64.09-3.17 1.28h-.01Zm29.22-76.26c.23-.35.41-.58.59-.89.16-.27-.04-.75-.26-1.06l-1.83 1.1c-.19.11-.11.6-.11.93l-1.47-2.47.48.35c.12.09.46 0 .61-.08l3.6-2.16c.11-.06.29-.26.28-.37l-.06-.68 2.44 4.05c-.45.29-.86.53-1.33.77.92-1.32.49-1.46-.28-2.85l-2.05 1.25c.22.33.48.69.73.72.32.05.76-.05 1.15-.1-.78.53-1.54.99-2.49 1.49m-15.07-14.7-.97-6.41-2.18 3.27c-.14.21.02.6.12.95l-1.4-.94c.28 0 .83.11.97-.1l2.39-3.59c.05-.28-.12-.7-.24-1.11l1.6 1.06.69 4.85 1.5-2.16c.1-.14.28-.56.19-.71l-.37-.63 1.5.97-.87.19-2.92 4.35h-.01Zm-3.39-9.02 1.41.7c-.47.03-.82.03-1.01.41l-1.43 2.84c-.35.7-1.14 1.08-1.91.96s-1.46-.49-1.97-1.02-.65-1.31-.32-1.98l1.48-3.01c.32-.65-.67-.7-.45-.95l2.54 1.23c-.52.03-.79.09-1 .52l-1.48 3.01c-.33.68-.03 1.32.6 1.67.77.44 1.78.29 2.22-.58l1.43-2.82c.14-.28-.01-.61-.13-.99h.02ZM31.23 56.33c-.06-.42-.1-.78-.39-.93l-4.07-2.12c-.27.23-.53.69-.49 1.08s.35.68.64 1.1l-1.38-.68 2.36-4.55 1.35.7c-.54.05-.94-.06-1.31.17-.25.16-.49.62-.59.96l4.06 2.12c.13.07.49.11.59.02l.51-.42-1.29 2.54h.01Zm32.65 73.65-2.76-.67c.35-.13.76-.23.82-.5l1.14-4.57c-.35-.18-.88-.34-1.25-.16-.26.13-.48.46-.83.81l.34-1.46 4.98 1.25-.4 1.42c-.13-.46-.16-.85-.41-1.15-.22-.26-.76-.38-1.12-.37l-1.11 4.43c-.11.43.16.62.61.98Zm38.15-6.04c.34-.36.5-.87.71-1.32.16.21.14.56-.01.85-.68 1.32-2.31 2.03-3.76 1.51s-2.11-2-1.86-3.41 1.43-2.46 3.03-2.5c.21 0 .34-.34.5-.67l.89 1.73c-.78-.56-1.43-.89-2.22-.6s-1.21 1.07-1.07 1.97c.16.99.65 1.91 1.4 2.56.69.6 1.69.62 2.38-.12zm10.86-7.61-3.79 3.27c.11-.32.47-.75.27-.98l-2.92-3.36c-.23-.27-.56-.13-.99-.06l1.98-1.73c-.03.27-.16.71-.03.87l2.97 3.38c.16.18.63-.17.81-.3.8-.58 1.01-1.52.5-2.68l1.2 1.6ZM80.55 26.82l-.25 1.95-5.05-.23.69-.26c.16-.06.25-.44.26-.65l.18-3.95c0-.18-.06-.53-.2-.58l-.67-.27c1.11 0 2.17.05 3.27.15l-.75.17c-.15.03-.3.32-.31.51l-.2 4.54c.63.22 1.31.29 1.91.04s.69-.84 1.12-1.42m-31.33 9.33c-.37-.03-.75-.03-.98-.17l-4.77-2.94 1.19 5.28c.08.35-.05.75-.15 1.17l1.4-1.01c-.28 0-.76.1-.83-.07-.13-.31-.25-.77-.31-1.09l1.51-1.07 1.09.75-.32.67 2.16-1.54v.02Zm-4.52.86-.45-1.98 1.73 1.05-1.29.93zm26.43 94.12c-.27-.31-.52-.57-.6-.9l-1.42-5.33-2.76 4.69c-.22.36-.59.53-.99.77l1.88.24c-.26-.18-.69-.39-.65-.59.07-.35.33-.8.53-1.05l1.82.24.29 1.29-.68.28 2.59.37Zm-3.83-2.49 1-1.73.54 1.94zm38.5-8.64-1.51 1.06c.05.3.18.86.3 1.09.09.17.58.07.85.05l-1.44 1.02c.11-.47.23-.85.15-1.25l-1.11-5.25 4.63 2.96c.26.17.65.19 1.09.25l-2.21 1.5.34-.66-1.1-.76h.01Zm-.3-.18-1.7-1.08.41 1.97zM72.61 27.09l-1.83.12c-.15.31-.33.84-.3 1.16.02.2.55.3.79.41l-1.87.13c.38-.37.66-.63.8-1.04l1.72-5.03 2.44 4.9c.17.34.48.58.8.81l-2.64.15.64-.39-.54-1.22zm-.17-.33-.91-1.75-.66 1.88zm37.41 9.95c-1.17.69-2.46 2.35-1.76 3.66.19.35.71.74 1.2.83l1.17.21c-1.02.45-1.93-.06-2.63-.7-1.32-1.22-1.28-3.19.1-4.35.75-.63 1.72-.89 2.69-.68 1.86.39 2.05 2.1 2.44 2.1h.55c-.41.55-.8 1.01-1.31 1.48.34-.94.31-1.68-.21-2.28-.58-.65-1.47-.72-2.24-.27m7.19 10.83-1.66 1.09-2.96-3.64c.27.02.71.13.86 0l3.31-2.69c.31-.26.25-.56.21-1.03l1.72 2.11c-.42-.14-.75-.32-1.04-.08L114 46.16c.16.65.67 1.27 1.34 1.53.52.2 1.01-.11 1.7-.14v-.02Zm-5.15-3.09-1.82-1.9.55.22c.13.05.46-.14.57-.24l2.99-2.91c.3-.29.1-.65-.04-1.09l2.02 2.09-.55-.21c-.13-.05-.42.1-.55.22l-2.99 2.91c-.18.18-.18.45-.18.92Zm-13.78 81.88-2.6 1.11c.23-.33.34-.49.41-.81l-1.79-4.16c-.1-.23-.56-.24-.92-.3l2.67-1.12-.4.4c-.1.1-.12.47-.07.6l1.78 4.14c.29.07.55.1.92.13Zm-70.53-60-.09-.58c-.02-.13-.25-.32-.41-.36l-4.05-1.11c-.15-.04-.55 0-.63.12l-.37.52.79-2.89.24.88 4.41 1.22c.11.03.4-.01.47-.1l.39-.49-.76 2.81v-.02Zm22.87-30.87c.12-.24.4-.64.29-.84l-2.32-4.19c-.38.15-.84.38-.96.64-.18.37-.09.74-.11 1.29l-.75-1.32 4.46-2.48.73 1.33c-.41-.26-.69-.52-.97-.57-.42-.08-.88.18-1.22.46l2.26 4.08c.07.13.35.29.48.27l.64-.1-2.54 1.43zm6.2-3.06-2.21.98c.12-.41.16-.69.02-1l-1.71-3.79c-.05-.11-.29-.29-.41-.29h-.6l2.67-1.18-.43.49c-.09.1-.02.43.06.61l1.77 3.93c.07.15.52.18.82.26h.02Zm67.69 60.62c-1.46-.6-3.11-.09-3.72 1.42l-1.11 2.74-.81 1.67c.36-.22.67-.39 1.01-.21l2.75 1.5c.89.49 1.02 1.56.5 2.33-.36.53-.99.82-1.6.5l-3.1-1.65c-.27-.15-.36-.46-.46-.86-.45.75-.79 1.59-1.29 2.3l-2.86 4.14c.41.32.8.58 1.2.82-.22-.49-.48-.84-.43-1.22.04-.32.35-.76.62-.9l3.66 2.55c.27.19.36.49.48.87l1.44-2.12c-.4.21-.72.45-1.07.21l-3.8-2.66c.23-.4.49-.8.76-.89.34-.12.8-.02 1.23.02l-.99-.77c-.07-.22.44-.54.66-.41l2.96 1.58c.68.37 1.48.32 2.1-.23.51-.47.87-1.13 1.04-1.82.21-.83-.19-1.66-.93-2.07l-2.9-1.6c-.19-.1-.22-.55-.16-.73s.38-.56.57-.51l4.14 1.58c.17.06.38.18.4.3l.15.62 1.18-3.13c.55-1.44-.29-2.82-1.63-3.38Zm.79 4.49-4.66-1.78c.08-1.03.92-1.75 1.95-1.65.88.08 1.71.44 2.45.9.8.62 1.03 1.6.26 2.53m3.83-12.21-.98 4.86c-.07-.28-.07-.81-.38-.87l-4.62-.88c-.46.16-.77 1.08-.47 1.47l4.35 1.28c.13.04.38.07.46 0l.48-.41-.74 2.67-.12-.66c-.02-.13-.23-.25-.39-.3l-4.21-1.19c-.28-.08-.52.28-.78.51l.77-2.79c.42-1.52.61-2.99.96-4.62l1.63.33c-.83.22-1.45.36-1.61 1.16l-.23 1.17 2.24.44c.24-.36.13-.88-.26-1.13l-.75-.46 2.97.57c-.82.16-1.56.15-1.56 1.1l1.75.35c.14.03.56.04.61-.08.57-1.27.39-2.14-.85-3.04.62.15 1.05.29 1.73.53Zm.23-.86-2.11-.23c.67-.29 1.23-.46 1.55-.86.46-.57.58-1.23.42-1.92-.07-.29-.41-.61-.66-.64-.3-.05-.79.17-.94.46l-.99 1.91c-.32.61-.92.94-1.54.89-.66-.05-1.22-.49-1.43-1.2-.44-1.46.69-2.4.44-2.69l-.34-.39 1.89.23c-1.24.39-2.03 1.33-1.64 2.61.06.2.42.48.61.51 1.37.21 1.2-3.63 3.54-3.3.62.09 1.15.56 1.33 1.24.56 2.05-.97 2.36-.12 3.39h-.01Zm-14.1 29.79-1.57-1.4c.79.16 1.29.39 1.95.13.52-.2 1.06-.67 1.27-1.33.09-.27-.07-.75-.27-.9s-.72-.23-.98-.1l-1.93.99c-.59.3-1.3.19-1.77-.22s-.67-1.08-.45-1.75c.48-1.43 1.9-1.61 1.91-1.89v-.54l1.4 1.24c-1.26-.4-2.49-.09-2.89 1.22-.06.19.08.63.23.75.16.14.63.21.85.1l2.05-1.08c.57-.3 1.35-.1 1.75.21.56.44.75 1.13.53 1.82-.65 2.02-2.21 1.45-2.08 2.77zM92.48 25.47c-1.7 0-3.08 1.38-3.08 3.08s1.38 3.07 3.08 3.07 3.08-1.38 3.08-3.07-1.38-3.08-3.08-3.08m-.86 5.64c-1.5-.41-1.03-3.33.28-4.73.38-.4.94-.56 1.47-.38.4.12.83.62.87 1.2.1 1.71-.95 4.37-2.62 3.91m-6.68-3.01c.15.99.98 1.59 1.96 1.44.45-.07.94-.38 1.42-.55-.77 1.48-3.6.98-4.49-.59s-.04-3.83 1.83-4.41 2.88.93 3.24.64l.42-.34-.43 1.98c-.21-.92-.54-1.59-1.31-1.86s-1.59.05-2.05.8c-.51.83-.75 1.84-.58 2.88Zm40.4 34.18c-.45-.06-2.24.47-2.3.78l-.13.64-.83-2.79.4.45c.1.12.46.12.64.06l4.22-1.29.22-.88c.3 1.37 1.98 4.46.13 5.19-.74.29-1.42.06-1.92-.7l-1.58 1.76c-.17.19-.29.51-.46.83l-.5-1.59 2.12-2.48v.02Zm2.67.25c.08-.37 0-.8-.13-1.14l-2.33.71c-.01.31.17.78.39.98.62.57 1.95-.02 2.07-.54Zm-1.61-5.92c0 1.7-1.38 3.08-3.08 3.08s-3.08-1.38-3.08-3.08 1.38-3.08 3.08-3.08 3.08 1.38 3.08 3.08m-.63-1.18c-.74-1.42-3.44-.53-4.65.85-.39.44-.47 1.03-.21 1.52.2.37.7.7 1.24.7 1.79 0 4.43-1.51 3.62-3.06Zm-79.94 59.76-2.41-1.95-1.15-1.07c0 .28.07.74-.08.88l-2.12 2.06.3-4.92-1.33-1.31.04 1.06-3.04 3.01c-.16.15-.6.12-.85.17.36.4.77.82 1.17 1.15-.1-.26-.4-.8-.21-1l2.88-2.84-.36 6.48 3.67-3.6c.23-.23.62-.19.84-.05.17.1.47.56.34.73l-2.84 3.65c-.12.16-.58.11-.86.11l2.41 1.9c1.3 1.02 2.96.75 3.94-.52.98-1.22.91-2.91-.35-3.95h.01Zm-.14 1.88c-.37.86-.96 1.65-1.79 2.21-.78.52-1.95.17-2.21-.68l3-3.86c.93.34 1.42 1.37 1.01 2.33Zm-13.25-8.79c-.36.09-.74.01-1.26-.08l1.11 1.46-.11-.86c.3-.24.83-.37 1.19-.4l1.11 1.42-.71 1.14-.66-.27 1.59 2.04c.03-.41.04-.79.23-1.1l2.69-4.76zm2.21 1.23-.96-1.24 1.96-.53z"/></g><path fill="#fff" d="m126.93 74.39-1.43-1.98 1.41-1.95 1.43 1.94zm-102.86.32-1.49 1.01.5-1.71-1.44-1.1 1.8-.04.62-1.68.59 1.66 1.82.06-1.44 1.1.5 1.73z"/><g fill="#fff"><path d="M98.07 60.62c-.72-.34-1.38-.3-2.16.22-.41-4.12-1.82-7.89-4.38-11.07-.3-.37-.62-.66-.84-1.12 1.13-.17 2.19-.71 2.27-1.87.05-.89-.81-1.83-1.69-1.86-1.2-.04-2 .97-2.03 2.11-.44 0-.66-.27-.97-.52-3.2-2.65-7.12-4.12-11.33-4.49.68-1.21.42-2.29-.58-2.86-.96-.54-2.15-.17-2.62.89-.28.63-.26 1.21.17 1.95-4.44.4-8.44 2.1-11.92 5.06-.33-1.07-.81-1.89-1.85-2.09-.66-.11-1.21.3-1.54.65-.49.53-.59 1.24-.33 1.85.31.73 1.01 1.03 1.82 1.2 0 .34-.26.55-.49.83-2.68 3.21-4.11 7.15-4.35 11.36-.89-.56-1.87-.73-2.64-.12-.84.66-.85 2.07-.08 2.79.77.7 1.71.49 2.69-.08.44 4.52 1.85 8.79 4.91 12.07-.19.14-.43.21-.73.27-.7.13-1.19.91-1.15 1.65.04 1.14 1.21 2.04 2.31 1.86.94-.15 1.27-.91 1.46-1.84 3.16 2.86 7.73 4.59 11.76 4.99-.53 1.32.13 2.72 1.39 3.08.7.19 1.55-.28 1.9-.87.41-.71.29-1.41.05-2.21 3.58-.13 8.39-2.1 11.13-4.42.24-.21.48-.4.72-.53.23.76.38 1.3.95 1.59.55.3 1.09.32 1.72.11.8-.28 1.29-1.1 1.15-1.88-.39-2.08-2.59-1.1-1.66-2.17 2.82-3.23 4.32-7.3 4.63-11.57.68-.08 1.32 1 2.55.25.49-.29.81-.86.82-1.54.01-.76-.47-1.37-1.05-1.66ZM77.02 45.07c3.67.37 6.56 1.65 9.43 3.96l-1.95 2.01-5.15 5.2c-.47.48-1.25-.49-2.51-.63l.17-10.55h.01Zm-2.88.12v10.38c-.68.27-1.29.54-2.06.93l-7.49-7.45c2.76-2.28 6.1-3.69 9.56-3.86zm-11.79 5.79 6.89 6.95c.23.23.47.48.63.65-.42.77-.65 1.3-.9 2.2H58.42c.16-3.4 1.66-7.27 3.92-9.81h.01Zm-3.8 13.26-.08-.74 2.68-.03 1.51.03 6.46.02c.24.69.42 1.18.77 1.9l-4.06 4.15-3.54 3.6c-2.31-2.51-3.4-5.6-3.74-8.93m15.59 15.02c-2.73 0-5.27-.87-7.53-2.3-.85-.54-1.65-1.05-2.34-1.83l7.03-7.05c.14-.14.31-.34.43-.4s.4.16.49.3l1.91.86v10.42Zm1.35-13.37c-2.06 0-3.75-1.68-3.75-3.75s1.69-3.74 3.75-3.74 3.75 1.67 3.75 3.74-1.69 3.75-3.75 3.75m1.38 13.31-.05-7.57.05-2.75 2.23-1.15 3.6 3.51 4.02 4.01c-3.02 2.3-6 3.91-9.85 3.95m11.89-6.11c-.47-.38-.78-.75-1.2-1.17l-3.47-3.44-2.9-2.9.91-2.05 9.87-.02c.24 0 .45 0 .62.06-.51 3.93-1.12 6.48-3.83 9.53Zm-6.66-12.3c-.29-.85-.58-1.49-1.06-2.29l7.54-7.55c2.35 2.44 4.04 6.4 4.13 9.85H82.1Z"/><path d="M104.02 96.89c-1.26-2.52-2.31-5-3.35-7.66-.61-.07-1.17-.09-1.78-.07l4.42 10.52c-3.61-.31-7.1-.01-10.68.65-4.52.83-8.7 2.55-12.71 4.72l-3.68 2.26c.85-1.26 1.96-2.09 3.14-2.94 4.3-3.12 11.22-5.67 16.49-6.16l2.26-.21c1.17-.1 2.25-.07 3.47.11-1.14-2.25-2.18-4.21-3.09-6.34l-1.53-3.6c-.41-.97-.83-2.24-1.82-2.83-3.63-.56-9.35.97-12.84 2.39-2.61 1.06-4.85 2.61-6.82 4.67-4.11-4.04-8.29-5.51-13.78-6.61-1.92-.38-3.72-.72-5.7-.52-.4.49-.96 1.04-1.27 1.56l-2.82 6.47-2.23 5.04 1.11-.22c4.85-.33 9.63.75 14.12 2.62 2.86 1.2 5.5 2.6 7.91 4.55.59.73 1.44 1.13 1.88 2.15-2.89-2.09-5.89-3.66-9.16-5-1.48-.61-2.86-1.1-4.42-1.48-5.05-1.26-7.96-1.54-13.33-1.31l1.51-3.43 3.03-7.16c-.67-.02-1.2.06-1.72.2l-2.76 6.28c-.99 2.25-2.17 4.23-3.12 6.6.58.06 1.15-.03 1.78-.09 2.2-.2 3.02-.12 5.23.02 6.87.45 13.7 2.52 19.75 5.83.35.2.47.62.74.9.82.83 2.16 1.33 3.37 1.32 1.17-.01 2.49-.5 3.26-1.33.3-.32.27-.7.77-.96 5.55-2.93 11.45-4.96 17.69-5.5l2.92-.27c1.46-.12 2.98-.13 4.44.01l1.71.17c-.78-1.95-1.55-3.58-2.41-5.33zm-27.7 1.38.1-4.49c1.9-2.17 3.9-3.62 6.62-4.72 3.75-1.51 7.63-2.21 11.72-2.16l1.95 4.82 1.91 4.21c-8.25.4-15.86 2.92-22.32 8.43-.02-2.11-.02-4.07.02-6.08Zm-1.7-1.95-.04 7.92c-3.62-3.1-7.72-5.23-12.24-6.57-1.41-.41-2.67-.79-4.11-1.03-1.86-.32-3.66-.58-5.66-.52l1.2-2.73 2.75-6.45c4.04-.13 8.59.81 12.25 2.46 2.51 1.13 4 2.5 5.89 4.45.21.75-.05 1.63-.05 2.48h.01Z"/></g><path fill="#fff" d="M75.52 32.09c-24.62 0-44.58 19.96-44.58 44.58s19.95 44.58 44.58 44.58 44.59-19.96 44.59-44.58-19.95-44.58-44.59-44.58m0 87.17c-23.51 0-42.58-19.08-42.58-42.59S52 34.09 75.52 34.09s42.59 19.06 42.59 42.58-19.06 42.59-42.59 42.59"/><path fill="#fff" d="M138.84 76.65c0 34.98-28.35 63.33-63.33 63.33s-63.33-28.35-63.33-63.33 28.35-63.33 63.33-63.33 63.33 28.35 63.33 63.33m-2.49.01c0-33.6-27.24-60.84-60.84-60.84S14.68 43.06 14.68 76.66s27.24 60.84 60.84 60.84 60.84-27.24 60.84-60.84Z"/><path fill="#fff" d="M134.29 76.66c0 32.46-26.31 58.77-58.77 58.77s-58.77-26.31-58.77-58.77 26.31-58.77 58.77-58.77 58.77 26.31 58.77 58.77m-.75-.01c0-32.05-25.98-58.02-58.02-58.02S17.5 44.61 17.5 76.65s25.98 58.02 58.02 58.02 58.02-25.98 58.02-58.02"/></svg>