<svg xmlns="http://www.w3.org/2000/svg" version="1.1" viewBox="0 0 150 150">
  <!-- Generator: Adobe Illustrator 30.1.0, SVG Export Plug-In . SVG Version: 2.1.1 Build 136)  -->
  <defs>
    <style>
      .st0 {
        fill: #fff;
      }

      .st1 {
        fill: #0e132c;
      }
    </style>
  </defs>

  <g id="Central_Element_Dark_UI">
    <rect class="st1" x="340" width="150" height="150"/>
    <g id="Central_Element3" data-name="Central_Element">
      <g>
        <g id="Steering_Wheel3" data-name="Steering_Wheel">
          <path class="st0" d="M458.56,46.67c-1.4-.67-2.68-.58-4.21.43-.8-8.02-3.54-15.37-8.52-21.55-.59-.71-1.21-1.29-1.63-2.18,2.2-.32,4.27-1.38,4.42-3.64.1-1.72-1.57-3.56-3.29-3.62-2.34-.09-3.89,1.9-3.96,4.12-.86.02-1.28-.52-1.88-1.01-6.24-5.15-13.86-8.02-22.06-8.75,1.32-2.35.82-4.46-1.13-5.56-1.86-1.06-4.19-.32-5.11,1.72-.54,1.23-.5,2.35.33,3.79-8.64.78-16.43,4.1-23.21,9.85-.65-2.09-1.57-3.69-3.6-4.07-1.28-.22-2.37.58-2.99,1.27-.96,1.03-1.15,2.41-.65,3.6.61,1.42,1.97,2,3.54,2.33.02.67-.5,1.08-.96,1.62-5.21,6.25-8,13.92-8.48,22.11-1.74-1.1-3.64-1.42-5.15-.24-1.63,1.29-1.65,4.03-.15,5.43,1.51,1.36,3.33.95,5.23-.15.86,8.79,3.6,17.11,9.57,23.49-.38.28-.84.41-1.42.52-1.36.26-2.32,1.77-2.24,3.21.08,2.22,2.37,3.97,4.5,3.62,1.82-.3,2.47-1.77,2.85-3.58,6.15,5.56,15.05,8.94,22.9,9.72-1.03,2.56.25,5.3,2.7,5.99,1.36.37,3.01-.54,3.7-1.7.8-1.38.57-2.74.1-4.31,6.97-.26,16.33-4.1,21.66-8.6.46-.41.94-.78,1.4-1.03.44,1.49.73,2.52,1.84,3.1,1.07.58,2.11.63,3.35.22,1.55-.54,2.51-2.13,2.24-3.66-.75-4.05-5.04-2.13-3.22-4.22,5.48-6.29,8.41-14.2,9.02-22.52,1.32-.15,2.57,1.94,4.96.5.96-.56,1.57-1.68,1.59-3,.02-1.49-.92-2.67-2.05-3.23ZM417.57,16.39c7.14.71,12.77,3.21,18.36,7.72l-3.79,3.92-10.03,10.13c-.92.93-2.43-.95-4.88-1.23l.33-20.54ZM411.97,16.62v20.22c-1.32.52-2.51,1.06-4.02,1.81l-14.59-14.51c5.38-4.44,11.87-7.18,18.61-7.52ZM389.02,27.9l13.42,13.54c.44.45.92.93,1.23,1.27-.82,1.51-1.26,2.52-1.76,4.29h-20.53c.31-6.62,3.22-14.16,7.64-19.1ZM381.62,53.72l-.15-1.44,5.21-.06,2.93.06,12.58.04c.46,1.34.82,2.31,1.51,3.71l-7.91,8.08-6.89,7c-4.5-4.89-6.61-10.91-7.28-17.39ZM411.97,82.94c-5.32,0-10.26-1.7-14.65-4.48-1.65-1.06-3.2-2.05-4.56-3.56l13.69-13.73c.27-.28.61-.67.84-.78.23-.11.77.3.96.58l3.73,1.68v20.28ZM414.6,56.93c-4.02,0-7.3-3.28-7.3-7.31s3.29-7.29,7.3-7.29,7.31,3.25,7.31,7.29-3.29,7.31-7.31,7.31ZM417.28,82.83l-.1-14.74.1-5.35,4.33-2.24,7.01,6.83,7.83,7.8c-5.88,4.48-11.68,7.61-19.17,7.69ZM440.43,70.94c-.92-.73-1.53-1.47-2.34-2.28l-6.76-6.7-5.65-5.65,1.78-3.99,19.21-.04c.46,0,.88-.02,1.21.11-.98,7.65-2.18,12.61-7.45,18.56ZM427.47,46.99c-.57-1.66-1.13-2.91-2.07-4.46l14.67-14.7c4.58,4.74,7.87,12.46,8.04,19.18l-20.64-.02Z"/>
        </g>
        <g id="Book3" data-name="Book">
          <path class="st0" d="M470.13,117.28c-2.45-4.91-4.5-9.74-6.53-14.91-1.19-.13-2.28-.17-3.47-.13l8.6,20.48c-7.03-.6-13.81-.02-20.78,1.27-8.79,1.62-16.93,4.96-24.74,9.18l-7.16,4.4c1.65-2.46,3.81-4.07,6.11-5.73,8.37-6.08,21.85-11.04,32.11-11.98l4.4-.41c2.28-.19,4.37-.13,6.76.22-2.22-4.38-4.25-8.19-6.01-12.35l-2.97-7c-.8-1.9-1.61-4.35-3.54-5.52-7.07-1.1-18.21,1.9-24.99,4.66-5.09,2.07-9.44,5.09-13.27,9.1-8-7.87-16.14-10.73-26.83-12.87-3.75-.73-7.24-1.4-11.09-1.01-.77.95-1.86,2.03-2.47,3.04l-5.48,12.59-4.33,9.81,2.16-.43c9.44-.65,18.75,1.47,27.48,5.11,5.57,2.33,10.72,5.07,15.41,8.86,1.15,1.42,2.8,2.2,3.66,4.18-5.63-4.07-11.47-7.13-17.83-9.74-2.89-1.19-5.57-2.13-8.6-2.89-9.84-2.46-15.49-3-25.95-2.54l2.93-6.68,5.9-13.95c-1.3-.04-2.34.11-3.35.39l-5.38,12.22c-1.93,4.38-4.23,8.23-6.07,12.85,1.13.11,2.24-.06,3.47-.17,4.29-.39,5.88-.24,10.17.04,13.37.88,26.67,4.91,38.45,11.36.69.39.92,1.21,1.44,1.75,1.59,1.62,4.21,2.59,6.55,2.56,2.28-.02,4.86-.97,6.34-2.59.59-.62.52-1.36,1.51-1.88,10.8-5.71,22.29-9.66,34.43-10.71l5.69-.52c2.85-.24,5.8-.26,8.64.02l3.33.32c-1.53-3.79-3.01-6.96-4.69-10.37ZM416.21,119.95l.19-8.75c3.7-4.22,7.6-7.05,12.89-9.18,7.3-2.93,14.86-4.31,22.81-4.2l3.79,9.38,3.73,8.19c-16.05.78-30.87,5.69-43.45,16.4-.04-4.12-.04-7.93.04-11.83ZM412.91,116.16l-.08,15.41c-7.05-6.03-15.03-10.17-23.82-12.78-2.74-.8-5.19-1.53-8-2-3.62-.63-7.12-1.12-11.01-1.01l2.34-5.32,5.36-12.57c7.87-.26,16.72,1.57,23.84,4.78,4.88,2.2,7.79,4.87,11.47,8.66.42,1.47-.1,3.17-.1,4.83Z"/>
        </g>
      </g>
    </g>
  </g>

</svg>