<svg xmlns="http://www.w3.org/2000/svg" width="24" height="24" fill="none" class="w-6 h-6" viewBox="0 0 24 24"><path fill="#c39900" d="M21 12a9 9 0 1 0-18 0 9 9 0 0 0 18 0m2 0c0 6.075-4.925 11-11 11S1 18.075 1 12 5.925 1 12 1s11 4.925 11 11"/><path fill="#c39900" d="M14.996 11.676A13.5 13.5 0 0 0 12 3.516 13.5 13.5 0 0 0 9 12l.004.324A13.5 13.5 0 0 0 12 20.484 13.5 13.5 0 0 0 15 12zm2 .697a15.5 15.5 0 0 1-4.271 10.317 1 1 0 0 1-1.45 0 15.5 15.5 0 0 1-4.27-10.317L7 12a15.5 15.5 0 0 1 4.275-10.69l.075-.07a1 1 0 0 1 1.375.07A15.5 15.5 0 0 1 17 12z"/><path fill="#c39900" d="M22 11a1 1 0 1 1 0 2H2a1 1 0 1 1 0-2z"/></svg>