<svg xmlns="http://www.w3.org/2000/svg" width="24" height="24" fill="none" class="w-6 h-6" viewBox="0 0 24 24"><path fill="#c39900ff" d="M15.302 11.906a1 1 0 0 1 1.137.71l.022.1 1.516 8.525v.008l.015.114a1.502 1.502 0 0 1-1.614 1.631 1.5 1.5 0 0 1-.797-.31v.002l-3.578-2.687-3.585 2.686a1.5 1.5 0 0 1-2.395-1.434l.002-.01 1.513-8.526.024-.1a1 1 0 0 1 1.946.45l-1.293 7.273 2.59-1.94h.002l.133-.091a2 2 0 0 1 2.128 0l.132.09.002.002 2.581 1.937-1.29-7.271-.013-.102a1 1 0 0 1 .822-1.057"/><path fill="#c39900ff" d="M17 8A5 5 0 1 0 7 8a5 5 0 0 0 10 0m2 0A7 7 0 1 1 5 8a7 7 0 0 1 14 0"/></svg>