<svg xmlns="http://www.w3.org/2000/svg" width="24" height="24" fill="none" class="w-6 h-6" viewBox="0 0 24 24"><path fill="#c39900" d="M15 21v-2a3 3 0 0 0-2.703-2.985L12 16H6a3 3 0 0 0-3 3v2a1 1 0 1 1-2 0v-2a5 5 0 0 1 5-5h6l.248.006A5 5 0 0 1 17 19v2a1 1 0 1 1-2 0m2.996-14a3 3 0 0 0-2.01-2.832l-.237-.072-.098-.03a1 1 0 0 1 .5-1.926l.1.02.2.056a5 5 0 0 1-.2 9.624 1 1 0 0 1-.502-1.936A3 3 0 0 0 17.996 7M21 21v-1.999l-.01-.248a3 3 0 0 0-2.003-2.583l-.237-.072-.098-.03a1 1 0 0 1 .497-1.927l.101.021.2.056A5 5 0 0 1 23 18.999V21a1 1 0 0 1-2 0M12 7a3 3 0 1 0-6 0 3 3 0 0 0 6 0m2 0A5 5 0 1 1 4 7a5 5 0 0 1 10 0"/></svg>